<?xml version="1.0" standalone="no"?>
<!DOCTYPE svg PUBLIC "-//W3C//DTD SVG 1.1//EN" "http://www.w3.org/Graphics/SVG/1.1/DTD/svg11.dtd" >
<svg xmlns="http://www.w3.org/2000/svg">
<metadata></metadata>
<defs>
<font id="blzeeregular" horiz-adv-x="1170" >
<font-face units-per-em="2048" ascent="1638" descent="-410" />
<missing-glyph horiz-adv-x="1090" />
<glyph horiz-adv-x="0" />
<glyph unicode="&#xd;" horiz-adv-x="390" />
<glyph unicode=" "  horiz-adv-x="1090" />
<glyph unicode="&#x09;" horiz-adv-x="1090" />
<glyph unicode="&#xa0;" horiz-adv-x="1090" />
<glyph unicode="!" horiz-adv-x="489" d="M-30 200q8 -295 152 -175q24 43 41 58q31 169 -87 205q-23 -17 -46 -18q-23 -37 -51 -46zM-2 620q10 -36 8 -71q34 -49 38 -98q39 -17 61 -45q61 1 108 26q8 49 7 84l-38 20l8 19l-8 20v116l31 20q-10 140 53 253q4 82 46 136v65l23 39q24 151 107 253v19l8 117 q-82 59 -169 65l-46 -26q-20 -35 -53 -52q12 -139 -31 -240q18 -37 0 -71q24 -51 16 -91q-52 -77 -39 -149q-20 -45 -46 -72v-45q-11 -26 -7 -52l-31 -32v-33l-8 -19l-7 -39q-6 -70 -31 -117z" />
<glyph unicode="&#x22;" horiz-adv-x="698" d="M-49 1272l1 -7q9 -100 56 -119l58 21l20 43q2 21 0 36q2 21 1 34l4 6l14 9q1 13 0 21q-4 30 -3 52q35 69 22 138l-7 2l-5 5q-16 25 -34 38q-20 -3 -30 12l-11 -1q-29 -25 -61 -20l-18 -13q-13 -87 11 -160q-3 -59 -18 -97zM192 1270q4 -96 41 -119l48 16l18 40q2 20 1 35 q2 19 2 32l3 6l12 8q2 12 1 20q-2 29 -1 50q31 64 23 131l-5 2l-4 5q-12 25 -26 39q-16 -1 -24 14h-9q-24 -22 -50 -15l-15 -10q-14 -83 3 -156q-5 -56 -18 -91v-7z" />
<glyph unicode="#" horiz-adv-x="1465" d="M-338 460l44 -11l33 -11q106 22 187 -11h33q52 -10 88 -11q-66 -202 22 -286h11h-11h11q53 -9 99 11v33q-8 118 0 198l22 11l275 -33q-58 -631 154 -407q-43 174 0 319v44q319 -79 353 77l-33 44h-33l-33 11l-88 22l-133 22q-13 91 11 166l34 22l88 -22q64 0 110 -11 l22 -11q122 -29 198 -33q87 43 99 121l-33 22l-44 22l-22 11h-44q-54 10 -88 33q-156 -9 -264 44q61 156 11 286q-202 -45 -166 -275h-55l-11 22h-33l-77 22q-66 2 -121 22q40 218 -110 319q-11 -13 -22 -11q-29 -58 -66 -88q39 -88 22 -176q-166 -4 -275 88h-99 q-84 -62 -66 -154q23 -53 55 -77q413 22 385 -143q-16 -41 -11 -88l-55 11h-33q-164 79 -308 88q-92 -113 -33 -232zM234 582l11 22q-5 82 0 132l143 -11q83 -29 143 -33v-33l-22 -122q-158 -10 -275 45z" />
<glyph unicode="$" horiz-adv-x="972" d="M-66 1006q24 -30 34 -63q82 -58 101 -127q76 -8 101 -63l56 -27l-11 -27l11 -55q-28 -141 0 -244q-63 -317 -157 -27q-48 30 -90 36q-24 -108 34 -190l-23 -27q81 -1 112 -63q80 -13 124 -54l-11 -27v-36q44 -177 22 -290l124 -72l45 45q-18 54 -12 100l-22 72l22 18 l-22 9v63l-11 27l-12 73q395 -99 607 117q-19 81 11 136q-97 49 -112 135q-122 78 -169 172q-65 -15 -67 45q-67 8 -56 55q-126 11 -202 81q-40 188 33 334q199 -8 360 46q-50 31 -68 72h-33q-82 -6 -146 9q-67 -19 -124 -18l-22 18l22 36q-1 56 34 91l-23 18l34 108 q31 80 34 136q-90 26 -157 18q-8 -111 -68 -136l34 -9q-9 -45 -34 -72q32 -81 23 -154l-34 -90q-234 -29 -258 -181zM170 1015l56 -18q-18 -155 -56 18zM338 283v36v27v27q-12 78 34 118q-74 67 0 126q-21 8 -23 36q59 -19 102 -27l11 -45q47 2 33 -36q76 -10 90 -63 q173 -59 180 -190q58 -149 -270 -163q-71 39 -146 45q0 52 23 91z" />
<glyph unicode="%" horiz-adv-x="1124" d="M-242 101q-15 -98 43 -167h129l43 29q59 181 216 305l14 58q15 17 29 20q59 134 158 216q24 77 86 127q76 195 244 324q41 71 101 108q-1 86 -87 118l-100 -30l-29 -39l-43 -49l-43 -39l-14 -20q-46 -130 -130 -216q-30 -82 -100 -127l-14 -69l-43 -29q-17 -54 -72 -89 q-52 -165 -187 -274l-115 -138zM-73 1258q-150 -105 118 -383h49l59 20q-24 49 -29 88q-93 112 -89 236q-50 38 -108 39zM477 12q39 -32 58 -68q212 43 69 206h-59q-59 -64 -68 -138z" />
<glyph unicode="&#x26;" horiz-adv-x="1370" d="M-220 -40q50 -70 72 -120l48 12q130 -14 216 12l24 36q178 60 288 168q60 39 97 72q96 -64 120 -156q87 -19 156 0q61 158 -72 264l12 60l24 12q64 70 120 108l84 48q76 89 104 142l30 105q-89 -40 -170 -67q-51 -59 -108 -72q-93 -123 -228 -144v36q-62 78 -72 168 q661 385 384 973q-61 19 -108 24q-254 -88 -409 -264l-12 -96l-24 -24q-12 -58 -12 -96l-24 -36q-7 -140 -36 -240q31 -106 12 -193q-420 -313 -516 -732zM32 56q33 188 180 264q43 99 108 156q251 -242 -204 -396zM513 873q-89 315 192 504q122 10 60 -72q50 -47 36 -108 q-105 -217 -288 -324z" />
<glyph unicode="'" horiz-adv-x="293" d="M211 1208l1 -7q4 -91 52 -113l60 15l23 38q3 19 2 33q3 19 2 31l4 5l16 8q1 11 1 19q-3 27 -2 47q40 61 30 125l-7 2l-5 5q-15 24 -33 37q-20 -1 -31 13h-11q-31 -21 -63 -14l-20 -10q-18 -79 4 -148q-6 -53 -23 -86z" />
<glyph unicode="(" horiz-adv-x="630" d="M-51 712q20 -106 5 -188l70 -256q47 -62 47 -120l29 -17l35 -123q101 -117 131 -231q155 -41 231 39q-1 58 -17 102q-59 2 -97 26l-10 57q-83 118 -104 226q-259 397 -57 802q97 323 411 456q41 57 78 88q13 126 -61 200l-101 -22l-48 -34l-47 -34q-74 -140 -204 -198 l8 -46q-84 -60 -137 -125l6 -34l-35 -31l-9 -25l-62 -179l-39 -80q7 -65 -6 -119l8 -46z" />
<glyph unicode=")" horiz-adv-x="650" d="M-20 1500l90 -74q12 -12 12 -24h34q53 -91 135 -135v-49l23 -12l11 -49l34 -86q93 -147 113 -282q-56 -551 -407 -869q-16 -132 11 -221q86 -1 136 12l34 123q74 115 158 171l-11 49q234 394 237 809l-23 24q-37 144 -45 245q-24 21 -34 49q-53 115 -67 196l-34 12 l-12 37q-51 59 -56 123q-79 82 -113 159l-102 12q-118 -83 -124 -220z" />
<glyph unicode="*" horiz-adv-x="880" d="M-20 1338q56 -213 262 -109v-33q-57 -121 -54 -229q56 -12 98 -11q20 92 76 131q126 -346 230 -186q-93 184 -109 339q145 23 240 11l44 22q-8 100 -99 120q48 82 121 120q10 431 -317 -65l-55 -11q-18 164 22 295l11 76q-52 40 -98 44q-165 -119 -77 -404 q-195 24 -295 -110z" />
<glyph unicode="+" horiz-adv-x="1145" d="M-100 665q10 -90 75 -179l75 21l33 -21q76 -1 129 -11q114 0 193 -22l-11 -53q4 -69 -10 -144q-19 -265 139 -258l54 22q-8 62 40 118q-81 155 -22 252v21q431 -136 423 60q-95 48 -151 65q-181 84 -251 107v54l21 32v32l11 43v33l11 32v32l10 22v129q-1 90 -38 161 q-35 53 -75 75h-11h11h-22h11h-22h11h-21h10h-10q-19 -23 -43 -32l-11 -32q3 -90 0 -151q25 -132 -11 -247l-11 -75l-10 -65q-61 -13 -108 -11l-75 33l-32 -11q-124 69 -237 64q-56 -43 -75 -96z" />
<glyph unicode="," horiz-adv-x="391" d="M-32 -139q-4 -25 6 -43l21 -4q-18 -2 8 -2q58 6 71 46q25 -7 47 52l18 2l46 116q30 68 34 86q57 53 50 111l-9 2l-5 4q-18 22 -39 34q-27 0 -38 13h-15l-66 -63q-65 -136 -57 -213q-18 -61 -43 -78v-13l-3 -8q4 -27 -8 -28q4 2 -18 -14z" />
<glyph unicode="-" horiz-adv-x="1068" d="M-38 634q-77 -118 20 -225q105 -11 137 22q45 -22 75 -19l28 5l56 12l21 4l17 -10l35 7l38 -6l28 5l21 5l31 -8l21 4l21 5l21 4l31 -8l21 5l24 -9l21 4l38 -24q59 -12 107 -27l71 -2q37 135 -16 182l-55 6l-54 22q-141 1 -247 33q-38 -20 -70 -14l-19 -18l-23 9l-24 9 q-48 -21 -85 -17l-16 11l-50 -10q-46 13 -82 11q-79 62 -142 32z" />
<glyph unicode="." horiz-adv-x="530" d="M36 212q-88 -170 28 -208q47 -1 72 40q56 24 64 76q-44 46 -60 96q-36 13 -60 16q-22 -16 -44 -20z" />
<glyph unicode="/" horiz-adv-x="760" d="M26 203q-12 -127 34 -243q125 -44 179 66l-9 106q-4 88 6 151l31 74l20 14q23 155 91 237l-1 60l32 74q40 118 79 177q8 18 20 14q42 259 161 400l48 43q-1 75 23 119q-73 159 -185 206q-78 -78 -91 -176q-1 -108 -11 -181l-14 -44l-42 -74q-24 -102 -71 -162 q-11 -166 -77 -253l-11 -60l-25 -44q-44 -89 -60 -163l-34 -119l-17 -29l-20 -14q-12 -114 -56 -179z" />
<glyph unicode="0" horiz-adv-x="1060" d="M39 870q-85 -412 58 -755q512 -337 929 368q326 567 -232 735h-20h20h-39h19h-38h19h-19q-29 -22 -58 -19h-58l-59 -20q-19 -34 -38 -38l-136 -39q-160 -31 -271 -97q-34 -79 -77 -135zM252 250q-2 78 38 136q-108 421 388 619q344 -12 309 -348q-55 -223 -232 -290 q-212 -286 -503 -117z" />
<glyph unicode="1" horiz-adv-x="500" d="M0 176q80 -106 154 -176l88 66q-91 464 110 836q18 228 -154 286l-110 -66v-66q-49 -92 -44 -154v-154l-22 -44l-22 -132v-154q21 -118 0 -242z" />
<glyph unicode="2" horiz-adv-x="1080" d="M38 908q318 -31 529 -190l-19 -170q-157 -113 -321 -132q-94 -179 -76 -340q365 -143 662 19q145 -11 227 37l-38 76l-151 19h-132q-148 -28 -265 0q643 680 -378 983q-125 -149 -38 -302z" />
<glyph unicode="3" horiz-adv-x="989" d="M-68 1090q175 -77 472 -127q-650 -544 228 -633l-45 -111q-195 -57 -531 -199l41 -100l395 48q383 105 428 451l-44 66q-356 53 -518 153q223 239 368 312l-44 133q-292 124 -520 122q-248 11 -230 -115z" />
<glyph unicode="4" horiz-adv-x="1060" d="M73 1187q-301 -602 158 -791q22 27 45 23q210 233 429 316q-142 -878 249 -700q-168 376 -23 723v294l-135 45q-34 -26 -68 -23q-207 -246 -475 -384q110 510 -180 497z" />
<glyph unicode="5" horiz-adv-x="1080" d="M24 434l124 -36q326 191 339 -92q-267 -146 -443 -177q90 -273 559 -7q260 234 21 459q-572 236 0 350l145 18l41 18h62l42 19h62l94 -11v92l-83 18l-103 37q-204 -25 -570 66q-286 -135 -228 -460q-120 -137 -62 -294z" />
<glyph unicode="6" horiz-adv-x="1000" d="M4 178l93 -119l157 -59q488 230 726 575q-120 560 -681 159q129 308 386 496q-4 155 -136 178l-159 -79q-378 -583 -386 -1151zM299 476l45 20q124 125 273 178q172 3 227 -119q-670 -505 -545 -79z" />
<glyph unicode="7" horiz-adv-x="941" d="M106 1142q-474 -275 509 -431q-27 -199 -117 -333q-711 15 -372 -372q86 67 176 78q76 68 157 78l-59 -156l-20 -39l-78 -118q-20 -33 -39 -39v-59q-96 -176 -137 -313l39 -118l98 39l30 19l9 79l50 39l-11 79l40 38q69 129 117 256q68 214 176 372l255 98 q-81 61 -176 78q86 230 58 470q-163 39 -274 98q-268 -1 -431 157z" />
<glyph unicode="8" horiz-adv-x="1051" d="M64 675q-207 -683 435 -685q554 232 374 872q155 176 145 394q-190 102 -332 145q-242 -29 -436 21q-138 -105 -124 -249q106 -79 207 -83l21 -62q183 -96 290 -208q-369 91 -580 -145zM313 218q-145 205 41 374q169 21 249 -104q98 39 166 83q34 -500 -456 -353z M582 1152l187 -21q-20 -233 -187 21z" />
<glyph unicode="9" horiz-adv-x="980" d="M49 -87q-98 -901 648 -903h20h-20h20l196 255l39 491q-133 659 79 1198l-39 19l-98 79q-131 -131 -138 -295q-372 468 -707 -19q-91 -854 687 -295l-30 -266q88 -311 -30 -832q-414 -189 -627 568zM246 443q-71 212 98 334q34 -340 392 -98q-164 -349 -490 -236z" />
<glyph unicode=":" horiz-adv-x="670" d="M0 163l3 -14v-50q6 -24 6 -44q17 -8 29 -11q26 -33 64 -35q21 -2 35 -9q24 16 44 20q26 33 61 47v9q13 17 12 35q28 20 23 58l-12 21q-12 11 -17 26l-9 3l-6 9l-6 5l-8 6q-10 5 -12 15q-5 3 -6 6q-18 11 -29 23l-52 3q-15 -11 -30 -12q-15 -19 -35 -23q-13 -35 -46 -44 v-9q-4 -22 -9 -35zM146 898q15 -15 26 -23v-9q10 -21 9 -46q5 -17 6 -30q24 -26 23 -58q27 -19 41 -35q40 3 67 18l3 20l3 53l26 11v32q41 65 35 134q17 56 -29 85q-25 66 -91 61l-17 -6l-3 -8q-24 -18 -38 -38q-23 1 -38 -9l-3 -6q9 -57 -6 -102l-11 -6q-4 -22 -3 -38z" />
<glyph unicode=";" horiz-adv-x="419" d="M-153.5 -282.5q-6.5 -96.5 231.5 78.5q115 109 136 161q67 174 63 212l-9 21q-10 11 -28.5 32.5t-19.5 31.5q-5 3 -5 6q-16 11 -92 14l-67 -67v-9q-9 -55 -7 -35l-59 -208l-32 -30q-105 -111 -111.5 -207.5zM72 791q15 -15 26 -23v-9q10 -21 9 -46q5 -17 6 -30 q24 -26 23 -58q27 -19 41 -35q40 3 67 18l3 20l3 53l26 11v32q41 65 35 134q17 56 -29 85q-25 66 -91 61l-17 -6l-3 -8q-24 -18 -38 -38q-23 1 -38 -9l-3 -6q9 -57 -6 -102l-11 -6q-4 -22 -3 -38z" />
<glyph unicode="&#x3c;" horiz-adv-x="910" d="M0 631q1 -64 17 -110l29 -23l17 -11l17 -6q22 -30 52 -46l23 -34q56 -37 81 -81l28 -6q38 -21 58 -51q43 -16 69 -35q30 -20 46 -52l17 -11h29l5 -17q31 -14 41 -41l17 -5l40 -23q49 -51 92 -75q74 3 126 29q13 59 6 103q-96 25 -144 92h-28l-12 6l-34 40q-69 38 -104 92 q-113 37 -161 138q-63 43 -97 109v29q29 32 57 46q100 154 265 173q63 55 132 69q21 45 46 74q1 139 -150 144q-44 -45 -92 -57q-14 -35 -34 -58q-27 -20 -40 -40h-18l-5 -12l-6 -11q-55 -47 -80 -81l-52 -17q-30 -37 -63 -46q-53 -54 -104 -75l-6 -17q-59 -48 -80 -103z " />
<glyph unicode="=" horiz-adv-x="1335" d="M50 634l17 -12l78 -12l26 24l17 -12l61 12h190l26 -12l148 -12l26 -11h26l26 -12h69q69 -34 130 -34q25 65 8 127h-34l-35 12l-35 11l-34 12h-35l-34 11h-35l-35 12l-43 11l-52 12q-49 -7 -95 12h-61h-26h-26q-81 -5 -138 11q-29 52 -70 58q-104 -81 -60 -208zM57 305 q12 -75 58 -111l55 44l85 4l30 8l133 31l24 -10l30 7l24 -10q76 2 133 -15l47 26q146 0 238 40l17 66l-3 15l3 -15l-3 15l-55 49q-122 -36 -234 -9q-90 6 -150 -4l-34 8l-30 -7l-120 3l-231 23q-75 -64 -17 -158z" />
<glyph unicode="&#x3e;" horiz-adv-x="1110" d="M11 30q68 -45 138 -18q61 58 78 126q41 11 67 36q65 72 132 102l18 31l12 6l18 12q30 13 54 30q9 6 18 6q51 43 96 60v18h48q73 69 157 84q19 24 42 36q10 25 30 36q14 56 30 90q-7 9 -6 18q-43 43 -60 84q-98 4 -162 54l-43 -6l-6 12q-34 14 -54 36q-65 15 -90 67 q-43 18 -60 48q-65 33 -102 72q-7 46 -24 78q-28 20 -42 42l-36 12q-228 -3 -133 -264q40 -18 72 -24q50 -24 79 -55q53 -10 72 -48l30 -12q106 -31 174 -96q69 0 102 -48l-36 -12l-24 -48l-18 -6q-6 -7 -12 -6q-44 -33 -78 -48q-57 -86 -150 -108q-34 -46 -78 -60 q-21 -29 -37 -42l-12 -6l-12 -12q-53 -33 -84 -73l-12 -12q-58 4 -90 -24q-25 -91 -6 -168z" />
<glyph unicode="?" horiz-adv-x="1004" d="M-292 1583q8 -25 1 -49q5 -3 4 -6q33 -21 45 -46q12 -5 17 -13l29 -12l88 3q21 -28 58 -33q12 18 28 26q8 38 22 65q101 27 173 -16q170 -30 172 -155q1 -92 -62 -159q-5 -23 -11 -39l-27 -16q-18 -38 -60 -52q-28 -60 -97 -81l-19 -19v-10l-10 -10q-31 -49 -61 -77 q-12 -18 -28 -26q-29 -50 -88 -81q-5 -14 -19 -23q-16 -60 -63 -103q-41 -127 27 -188q28 -69 131 -65q26 -13 46 -19q14 24 33 39l3 45q-73 105 4 198l17 55q19 15 40 19q24 36 60 55q7 18 16 32q35 24 46 49q26 12 45 16q18 23 24 42l5 7l9 6l19 16q14 27 42 42v13 q18 31 26 52q20 16 40 23l16 35l9 10l9 10q20 44 52 64q10 37 26 62l1 16l5 13l1 10l1 13l1 13v13l1 9l5 13l1 10l1 23q-9 38 1 71q-48 112 -178 152l-70 65h-34q-78 42 -150 35q-26 14 -52 16q-48 29 -102 26l-27 -10l-13 -3q-67 2 -109 -3q-28 -28 -60 -42 q-18 -29 -50 -42l-3 -42q1 -24 -7 -42zM-139 147q-31 -56 16 -82q6 -25 28 -31q5 -21 21 -29q64 -15 87 39l18 8q12 18 31 26l5 20l3 18q8 13 10 24q-51 90 -136 87q-13 -7 -24 -7q-22 -25 -48 -34q-9 -23 -11 -39z" />
<glyph unicode="@" horiz-adv-x="1567" d="M-390 446q62 -428 395 -673l31 -31l83 -31l72 -11q59 9 114 -10q97 33 165 41l31 11l31 10q16 12 31 10l166 73l21 83l-52 31q-481 -207 -747 174q-264 382 20 758q518 592 882 174q16 -19 11 -41h41l10 -31q18 -10 21 -21l21 -10q40 -110 63 -226q-54 -138 -146 -229 q-63 -93 -155 -124l-31 20q-67 165 20 311q84 -21 104 -83q85 37 134 93v31q-51 61 -72 124h-31q-49 10 -83 10q-200 124 -414 42q-300 -240 -341 -579l62 -93q171 -68 372 175h42q3 -253 248 -227q83 82 176 103l10 21l11 31l31 21l113 124l21 72l62 11v31q47 158 31 289 q-47 62 -62 124q-56 43 -83 93q-48 32 -62 73l-31 10l-10 21q-60 42 -104 114q-62 23 -93 62q-92 -19 -165 41q-116 -13 -197 0q-13 -17 -31 -21q-13 -16 -31 -20q-13 -17 -31 -21l-93 -41q-13 -17 -31 -21l-31 -21l-41 -31l-42 -21l-20 -20l-63 -42q-10 -12 -20 -10 q-57 -80 -124 -114q-3 -26 -11 -41l-20 -21v-31l-21 -10l-10 -31q-68 -130 -94 -217l-10 -31l-10 -31l-21 -31q-24 -92 -12 -165zM191 517l31 21q41 127 155 166l21 51q144 -57 -83 -248q-121 -143 -124 10z" />
<glyph unicode="A" horiz-adv-x="1190" d="M-150 20q22 -49 44 -79q52 14 88 35q11 36 26 62q3 140 111 353q11 43 54 63q17 34 34 34q9 0 17 -9h62h26q9 15 18 17h149l35 9l18 -9q57 0 97 -8q41 9 76 9t64 -9q12 -92 35 -150q27 -32 27 -69v-10q89 -130 96 -263q47 -67 53 -141q34 -11 64 -11q51 0 94 29 q23 50 62 79v15q0 41 -9 73q-5 86 -97 216q-53 140 -96 197l-18 61q73 70 73 122q0 77 -161 115l-44 53q-9 73 -26 123q-29 47 -35 97q-33 33 -44 61v35q-23 35 -26 71q-28 51 -36 96l-17 18q-27 110 -79 184q-2 57 -9 97l-141 44q-8 -10 -17 -9l-71 -44l-8 -35l-18 -70 q6 -42 6 -81q0 -117 -59 -200v-14q0 -62 -8 -109q-32 -26 -44 -53q-44 -143 -150 -229v-61l-17 -149l-27 -44l-9 -27l-8 -35l-9 -26l-9 -27l-84 -265zM468 1076l40 31q118 -98 119 -245q35 -41 35 -64q0 -28 -53 -28q-22 0 -54 5q-173 27 -173 126q0 69 86 175z" />
<glyph unicode="B" horiz-adv-x="1490" d="M0 1162l8 -69q63 -130 71 -241v-206l-8 -52q9 -13 8 -26l8 -51l-8 -52l8 -43l-8 -103q9 -27 8 -52q42 -66 47 -129q54 -22 87 -52l16 9q64 73 111 112l8 26v43v34q-23 130 -24 215q45 -56 103 -77q167 108 339 108q36 0 72 -5q64 22 119 21.5t102 -21.5q24 3 47 3 q138 0 222 -98v-25l-16 -112l-31 -9q-211 -212 -466 -212q-43 0 -88 6q-58 -22 -112 -22q-23 0 -46 4q-66 92 -142 95l-8 -112q90 -97 190 -120l23 -52h72q66 -15 127 -15q102 0 189 41q234 39 387 189l40 17l8 61l39 25v35v26l16 68v35q-11 57 -11 103q0 23 3 43 q-55 55 -79 103q-110 32 -174 95l-32 -9l-23 9h-24q-72 36 -126 52l-24 -9h-24q-83 17 -145 17h-13v43q113 107 111 250q41 49 41 102.5t-41 112.5q-15 300 -396 327q-295 -70 -395 -353q-106 -18 -166 -103zM284 887q2 26 2.5 50t-2.5 46q-5 37 -5 72q0 127 70 216 q50 155 175 191q254 -3 254 -246q0 -40 -7 -85q-16 -25 -37 -35q-11 -102 -87 -113q-34 -55 -87 -61q-35 -47 -85 -46q-12 0 -24 2l-51 -26q-43 -51 -87 -69q-9 66 -29 104z" />
<glyph unicode="C" horiz-adv-x="1200" d="M0 579q53 -100 52 -199q31 -16 34 -52q74 -63 104 -129l43 -9q106 -127 242 -147l43 -43q28 10 52 9l61 8q50 4 93.5 4.5t78.5 -4.5l9 18l17 8l61 9q38 26 77 34q66 61 139 87q33 36 51 69l35 8l9 18l11 54l64 51q90 100 106 163l-69 -26q-85 -112 -207 -139 q-128 -113 -276 -113q-13 0 -27 1q-53 -24 -99 -24q-60 0 -108 41q-138 5 -181 121q-148 94 -147 256v21q-2 25 -2 49q0 230 175 357q148 178 354 207l86 -26q61 -85 153 -85q26 0 54 7v35l52 34q23 80 23 152q0 84 -31 159l-70 18l-60 17l-26 -26h-10q-90 0 -154 -17 q-52 -37 -112 -43q-124 -86 -251 -104q-44 -45 -95 -60q-77 -144 -199 -225q-17 -93 -17 -156l-17 -17q-48 -119 -95 -190q4 -26 4 -51q0 -71 -30 -130z" />
<glyph unicode="D" horiz-adv-x="1194" d="M-51 68q41 -88 92 -88q63 0 140 132l10 -35q77 -19 122 -71h27q38 -2 66 -9h27l13 -9q88 -4 139 -18q32 10 59 10q8 0 16 -1l49 18q53 24 103 26q17 20 36 27q16 39 39 62q275 125 279 517q23 33 26 62q2 30 2 58q0 90 -25 147q5 33 5 62q0 71 -30 125q1 11 1 21 q0 60 -31 94q1 18 1 33q0 23 -2 39l-25 18q-9 24 -10 44q-55 38 -71 107q-75 42 -113 98h-27q-77 5 -130 44h-68q-32 14 -59 9q-31 -6 -61 -6q-59 0 -113 24q-13 -30 -35 -27q-44 -79 -97 -107q-12 -101 -78 -124l-25 -54q-32 8 -60.5 8t-53.5 -8l-22 -17q-5 -66 -42 -98 l-2 -27q7 -51 7 -99q0 -61 -12 -115q2 -27 2 -51q0 -36 -5 -64q20 -56 19 -98l-16 -27q4 -29 4 -56q0 -37 -8 -69l-23 -115l10 -36q-6 -48 -27 -80q-6 -72 -6 -125v-26l-8 -18q-2 -63 -9 -107zM221 564q7 123 40 205q-1 17 -1 32q0 107 47 182q30 241 191 285q14 23 28 35 l26 -27q53 13 100 13q188 0 277 -208q81 -76 81 -202v-12q17 -55 17 -107q0 -41 -10 -80q6 -35 6 -67q0 -112 -80 -173q-23 -174 -142 -174q-18 0 -38 4l-21 -35h-20l-14 9q-12 2 -23 2q-28 0 -51 -11q-18 1 -34 1q-46 0 -80 -10l-14 9l-107 9q-46 28 -89 28q-26 0 -51 -10 q-43 115 -43 226q0 38 5 76z" />
<glyph unicode="E" horiz-adv-x="1265" d="M-20 411q12 -29 11 -62l-7 -15l7 -148q118 -146 279 -147l25 -39l30 8q38 8 72 8h13q70 33 138 38q7 14 15 16h54q46 41 99 46l21 39q32 8 59 8h10q57 46 122 46l14 31q67 41 122 55q46 85 126 116q23 47 51 70l-3 62l-25 23q-33 -16 -62 -16q-7 0 -14 1 q-134 -148 -310 -171q-81 -86 -185 -86q-10 0 -20 1l-7 -31q-89 -29 -164 -29q-128 0 -218 83q-33 129 -33 248q0 93 20 179q36 5 62 0l122 31l47 -16l31 8h101l24 -8h46h23h24q87 -15 148 -15h8l14 15q44 16 81 16h4l7 15l15 8h23q41 46 90 62l-9 39l-24 15h-17 q-75 0 -132 24q-89 1 -157 38q-44 -9 -84 -9q-100 0 -182 56q-98 20 -159 85l42 86q52 1 85 15q39 16 60 31l63 -8q147 33 286 33q153 0 296 -40l22 15q85 -20 154 -20q34 0 64 5q36 31 36 74q0 5 -1 11q-78 69 -152 93q-81 1 -134 39q-23 -2 -44 -2q-45 0 -80 10l-16 7 l-30 -2q-65 0 -119 26h-6q-73 0 -135 23q-22 -4 -44 -4q-48 0 -88 19q-19 -1 -37 -1q-124 0 -221 48h-24l-94 31l-7 -23q-39 -66 -88 -101q-8 -49 -35 -78l18 -46q24 -76 52 -117l-21 -38q1 -133 -75 -218l3 -54q8 -25 11 -70q-34 -66 -34 -131q0 -19 3 -39q-20 -50 -20 -93 q0 -20 4 -39q-15 -39 -36 -62l16 -24l-14 -15z" />
<glyph unicode="F" horiz-adv-x="1252" d="M30 1399q21 -64 91 -92q127 -36 127 -204q0 -44 -9 -98l-16 -87q-141 -38 -141 -139q0 -33 15 -74q187 -91 190 -253q56 -467 186 -467q34 0 74 33q1 15 1 30q0 69 -16 120l-40 55v40l-8 23v32v55q-8 70 -8 122v20l4 58l24 -8q36 3 68 3t58 -3h32l31 8h40h39h32h40h23 l56 -8q72 26 138 26q18 0 36 -2q65 23 65 51q0 27 -61 57l-32 8q-19 -1 -37 -1q-98 0 -176 41q-30 -7 -57 -7q-63 0 -109 38q-19 -4 -37 -4q-57 0 -98 44q-49 4 -87 23l-7 16q2 21 0 32v24v55q-17 46 -17 85q0 9 1 18q37 57 47 102q165 59 307 59q134 0 248 -52h32l127 -24 q40 -35 63 -63l126 -39q20 52 19.5 99.5t-19.5 89.5q-88 44 -134 111q-125 10 -190 79l-110 8l-32 8l-24 8q-60 21 -95 39h-31l-63 24l-16 16h-24q-29 9 -55 9q-8 0 -16 -1q-74 -23 -139 -23h-5q-60 59 -119 79l-47 8q-30 -16 -59.5 -16t-59.5 16q-147 -95 -147 -189 q0 -9 1 -18z" />
<glyph unicode="G" horiz-adv-x="1220" d="M14 321q36 -43 41 -81l24 -17q52 -83 106 -130q102 -88 208 -88q54 0 109 23l81 -24l24 16l57 25q127 24 211 73l17 48h65q21 21 48 33q45 52 90 73q39 77 97 122q8 14 17 16l8 16q31 111 89 187q0 288 -244 325q-54 24 -105 24h-8q-53 -29 -106 -32q-72 -63 -146 -81 q-32 -43 -73 -57q-22 -42 -49 -57q-27 -80 -27 -143q0 -178 214 -222q25 38 25 82q0 7 -1 15q-63 45 -63 88t63 83q74 50 149 50q15 0 30 -2l40 41q81 -24 142 -24h13q8 -72 8 -120v-19l-41 -24q-31 -83 -89 -130l-16 -57l-25 -8l-24 -8l-8 -16l-106 -73l-24 8 q-38 -17 -57 -49q-121 -3 -211 -49q-40 26 -73 33q-179 1 -228 154l-41 16q-26 122 -26 236q0 193 75 365q63 52 90 122q45 12 81 33l16 57h24q115 111 244 146q65 -72 138 -90l8 25q46 43 90 65q7 60 40 97q-29 105 -81 171h-24q-47 9 -81 9q-9 0 -17 -1q-33 -17 -62 -17 q-6 0 -11 1q-105 -75 -219 -90l-8 -24l-25 -8l-8 -16l-40 -49l-17 -16q-33 -32 -48 -57q-58 -34 -90 -65q-17 -42 -49 -65l-8 -57l-24 -8q-52 -107 -114 -171v-65l-32 -40l-8 -25q-10 -70 -10 -125q0 -19 1 -37q-27 -118 -27 -219q0 -64 11 -122z" />
<glyph unicode="H" horiz-adv-x="1077" d="M-20 904v-9q0 -39 8 -67q53 -70 53 -144q-13 -19 -16 -37q8 -59 8 -104v-17l-8 -31l16 -60l7 -53l-7 -23q7 -85 7 -147v-27q-5 -32 -5 -59q0 -131 130 -131q9 0 19 1q49 65 53 129q-4 38 -28 68l-8 106v22l8 23l7 53l-7 45l7 23l8 23q-1 24 -1 47q0 74 8 127h13 q114 -33 219 -33q59 0 114 10q106 54 204 54q11 0 23 -1v-23l-25 -53l-7 -15l7 -144v-13q0 -53 -7 -92v-53q12 -31 7 -61v-53q9 -47 23 -76q3 -116 30 -196q77 -22 123 -23q51 44 68 91q-83 139 -83 280v7q6 35 15 61q1 55 15 91v22l-7 38l15 53v23v30l7 121l31 106l-8 30 l8 38l7 23l-7 30q10 74 10 130q0 32 -3 59v46q24 50 23 98q19 23 23 45v68q46 118 45 212q-57 65 -129 76q-19 -13 -37 -15q-18 -82 -53 -136v-31l-15 -30l7 -45l-7 -23v-23q-9 -28 -8 -60l-8 -23l-7 -38l-8 -45v-220q-13 -28 -13 -54q0 -18 6 -36q-49 -38 -106 -38 q-33 -33 -74 -33q-12 0 -24 3l-46 -23q-242 26 -378 242v23v22v31l8 22l7 23v23l8 22q0 220 22 281q-23 104 -60 166h-9q-110 0 -165 -98q-24 -52 -24 -99q0 -7 1 -14l-15 -205q31 -73 31 -147q0 -91 -46 -186z" />
<glyph unicode="I" horiz-adv-x="420" d="M0 158q25 -63 25 -110q74 -48 152 -48h3q83 44 83 112q0 6 -1 12q-57 32 -90 61v28v116v21v82l16 21l-16 48l8 27l16 76v20l17 14v28l8 13q37 122 41 206q13 38 41 55v21q-14 28 -8 55l16 34v27v76l8 34v21q2 21 2 39.5t-2 35.5v21l41 199l-49 89q-29 -2 -53.5 -2 t-44.5 2q-93 -48 -131 -117q14 -29 33 -48v-20l-9 -55q5 -40 17 -69v-103q1 -12 1 -23q0 -41 -9 -73q8 -49 8 -89l-8 -48q-3 -124 -41 -213q1 -40 8 -68l-8 -28l-17 -62v-75q-29 -68 -32 -124v-103l-9 -20q-4 -58 -16 -96z" />
<glyph unicode="J" horiz-adv-x="1050" d="M174 52q25 -39 25 -85q0 -9 -1 -18q58 -71 60 -148l20 -15l10 -22l20 -15q16 -27 12 -52q8 1 15 1q42 0 54 -20q14 -24 72 -37q100 3 190 4q33 -5 57 -15q22 4 40 4t34 -4h66q27 15 49 22q60 51 124 67l14 74q17 36 41 59l3 52l12 22l5 29l12 23q10 47 23 81q-1 20 6 30 l16 81l5 30l-3 22l12 22l-3 22l13 30l-5 52l11 14l15 109l-22 37q11 55 11 103q0 57 -16 104q12 45 12 84q0 30 -7 56q7 39 7 74q0 70 -27 126l6 30q1 72 17 125q-15 58 -15 113q0 41 8 80q-26 39 -26 83q0 10 1 20q-55 46 -69 104l-54 22q-42 -10 -77 -10t-64 10l-29 -37 q-73 -13 -137 -13q-94 0 -171 28q-82 -2 -145 -22q-45 -117 -95 -185q31 -33 38 -67q32 -16 44 -44l53 7q28 -16 55 -16q8 0 16 1q95 40 171 45q105 51 199 51q35 0 69 -7l12 -52q17 -27 17 -57q0 -12 -3 -24l32 -67l-6 -29q17 -39 17 -82q0 -18 -3 -37q17 -71 17 -136 q0 -52 -11 -100l12 -15l3 -22q3 -20 3 -39q0 -23 -4 -43l4 -14l-4 -23q12 -52 12 -99q0 -41 -9 -78q7 -51 7 -101q0 -172 -86 -333q-4 -75 -40 -133l-92 -15h-59l-92 -15q-34 -3 -65 -3q-245 0 -291 196q-32 90 -44 229l-18 23q-11 -122 -79 -215z" />
<glyph unicode="K" horiz-adv-x="1360" d="M0 241l16 -24q9 -70 32 -119l87 -24l150 56q63 46 119 63l16 24l24 8l15 16l16 8q8 9 16 8l127 103h40q34 -55 63 -88q48 -33 71 -71q91 -53 143 -134q107 -22 174 -72q106 -72 172 -72q86 0 105 120q-9 8 -8 16q-129 68 -198 174q-125 60 -150 182q-57 51 -87 95 q-28 61 -40 111l16 16q63 48 95 87l24 24l16 8q70 81 142 118l8 24l16 16l24 8q32 72 95 103q31 68 79 103q-7 44 -24 79l-47 -16q-89 -120 -230 -150q-25 -38 -55 -56q-81 -139 -206 -198q-93 -112 -206 -166l-16 -48l-24 -8l-24 -7l-39 -48l-103 -79h-32q-84 -46 -159 -48 l-7 24q5 46 15 79l8 24l8 55l8 143q14 41 32 71q-1 350 190 578q7 61 32 103q-15 29 -15 57q0 19 7 38q-105 113 -230 143l-8 -16q-18 -58 -40 -95q-6 -44 -31 -71l8 -56q-9 -25 -9 -50q0 -7 1 -13v-79q-43 -86 -48 -166q-14 -60 -16 -103v-40v-48l-23 -79v-134l-8 -24v-56 l-8 -15l-8 -16q-31 -142 -32 -238q-15 -21 -31 -31q-10 -77 -48 -127z" />
<glyph unicode="L" horiz-adv-x="1210" d="M8 194q10 -8 8 -17q33 -14 50 -41q26 -14 33 -41l41 -16l16 -17l8 -16q76 -19 132 -66h25l24 16h16q40 0 75 -8h24l17 8q39 8 74 8t65 -8l50 9q81 58 168 58q11 0 21 -1q120 62 222 66l16 16l107 74q-30 51 -81 51q-9 0 -18 -1l-98 -41h-25q-34 9 -73 9q-13 0 -26 -1h-57 q-29 -13 -57 -13q-17 0 -33 5q-56 -29 -107 -29t-99 29q-332 2 -332 289q0 86 30 198l41 41q2 21 8 33l9 41q33 77 33 148v8q23 43 49 74q6 60 24 99l17 57l57 25q44 71 107 98q30 77 83 116v15q0 134 -83 223q-33 -3 -62 -3t-53 3l-90 -74q-9 -42 -25 -66q-35 -75 -41 -140 q-90 -119 -99 -254q-90 -106 -90 -231v-8q-42 -104 -42 -198q0 -12 1 -24l-33 -41l14 -248q-49 -71 -49 -148q0 -33 8 -66z" />
<glyph unicode="M" horiz-adv-x="1520" d="M11 388q57 -133 112 -133q48 0 94 100q46 26 74 57q-41 105 -41 224q0 75 16 155q165 -99 343 -99q18 0 36 1l42 32q46 23 82 25q31 27 66 33q77 76 165 91q74 66 148 90q-10 -61 -33 -99v-82q-13 -55 -13 -102q0 -28 5 -54q-60 -167 -60 -312q0 -210 126 -372l107 -33 q64 24 107 58v24q-104 116 -132 239l8 58q-10 63 -10 122q0 134 52 249q-1 104 41 181l8 16q10 95 49 165q4 81 42 140q4 104 49 173v10q0 44 -8 81q-72 78 -149 78q-32 0 -65 -13l-66 -90q3 -29 3 -57q0 -105 -45 -190q-75 -52 -148 -58q-21 -60 -82 -66q-48 -59 -113 -59 q-13 0 -27 2q-69 -65 -152 -65q-71 0 -153 48q-29 34 -50 50q-24 95 -74 156q1 43 9 66v25l8 107q-13 10 -17 24q-5 20 0 33l-16 9l-17 16l-8 25l-16 16l-9 50q-40 59 -57 107h-66l-58 8q-8 -10 -16 -8l-9 -17l-16 -16l-66 -99q4 -65 33 -115l-8 -42v-65l8 -25 q6 -24 6 -46.5t-6 -44.5q23 -77 25 -132l-17 -41l-8 -41l8 -140l-16 -33q1 -67 16 -115v-41q-8 -14 -16 -17v-58v-24q-25 -69 -25 -128v-12z" />
<glyph unicode="N" horiz-adv-x="1190" d="M8 -10l43 -34q18 -19 39 -19q64 0 163 171v25v25q-2 43 -9 68v42l9 17q-1 31 -1 59q0 109 18 185l8 17q6 232 101 396l17 -59l9 -51q34 -81 34 -156q0 -15 -1 -29q14 -26 17 -51l17 -33q26 -81 26 -145q0 -12 -1 -24l34 -59l8 -25v-9q0 -125 51 -210l8 -59q44 -24 68 -42 q86 4 135 50q32 86 84 135v59l59 93v59l25 42q16 25 9 50l8 43l9 16v26q41 90 59 151q11 87 42 144l8 42l17 25v34l8 25l9 25v59q9 34 9 63q0 11 -1 22l34 33l16 123l6 73l-1 113q13 13 13 26q0 31 -78 61q-19 7 -35 8q-79 0 -91 -180l31 -43l16 -59l-29 -105l-17 -17 l-8 -17q-12 -108 -51 -185q-7 -113 -59 -202v-59q-50 -111 -59 -194q-36 -42 -50 -84q-12 -56 -59 -68l-25 51l-9 34l-25 151q-31 66 -34 118q-43 99 -42 194q-9 27 -8 51q-29 85 -29 158q0 23 3 44l-8 25v59q-25 48 -25 99v11q-21 64 -51 101q7 46 34 76l-59 17 q-30 95 -112 95q-15 0 -32 -3q-33 -35 -75 -50q-21 -94 -51 -152q-3 -67 -25 -118v-51l-9 -50l-17 -34l17 -34q-2 -46 -17 -84v-42q-33 -201 -33 -329q-5 -48 -42 -67l8 -194q-17 -42 -17 -91v-10q-42 -134 -42 -257q0 -54 8 -105z" />
<glyph unicode="O" horiz-adv-x="1610" d="M0 525v-8q0 -413 299 -489l55 -28h24l63 9q94 19 158 19q11 10 23 9q12 10 24 9q76 40 149 46q107 59 182 83l15 37l111 27l23 28l24 28l23 9q62 63 111 92q51 93 118 138l16 28q21 52 55 83l8 27l7 28l48 73q11 79 47 129q1 47 8 74q-32 71 -32 141q0 36 8 71 q-211 479 -623 479h-7l-16 -19l-47 -37q-36 20 -63 28q-55 -55 -121 -55h-5q-74 -71 -157 -92l-16 -28l-24 -18l-55 -56l-16 -27l-47 -37l-16 -18l-7 -19l-16 -27l-110 -148v-27q-49 -74 -63 -148l-40 -27q-5 -53 -31 -92l-8 -28l-8 -19q-5 -103 -47 -165q-9 -50 -24 -83z M260 654l24 18q26 132 102 221l39 92l16 9q65 55 126 74q66 73 127 73q69 0 133 -91q83 -20 126 -92l16 9l47 18q19 78 47 120v37l-23 18q-19 120 -63 203l15 27q69 -2 118 -46q149 -25 197 -175q104 -125 104 -272q0 -60 -17 -124l-55 -55q-38 -118 -118 -175 q-15 -37 -40 -55l-15 -55q-63 -5 -111 -28l-15 -18l-24 -9h-32l-15 -19l-16 -9l-126 -28q-65 -43 -126 -46q-79 -31 -151 -31q-61 0 -117 22q-180 6 -180 271q0 53 7 116z" />
<glyph unicode="P" horiz-adv-x="1290" d="M0 85q68 -75 144 -85q30 60 78 78l7 20q-7 52 -7 99q0 114 39 208v11q0 111 40 198q9 126 78 215h20l117 7q63 20 111 20q10 7 20 6h26q73 31 131 33q53 20 101 20q8 0 16 -1q38 16 65 20q26 20 53 26l13 7q27 16 52 19q23 23 46 26l6 13l13 7l85 104q-1 7 -1 14 q0 44 34 71q-19 49 -19 91q0 24 6 46q-46 61 -59 118q-60 37 -91 85q-91 44 -138 104h-26q-60 20 -107 20h-4l-39 13q-57 -29 -104 -33q-23 -24 -46 -26l-13 -13q-25 -33 -59 -46q-22 -37 -59 -52q-24 -35 -52 -52q-15 -37 -33 -59l-6 -19q-55 -60 -66 -124q-39 -41 -45 -92 l-40 -13q-38 84 -92 84q-51 0 -117 -77l-6 -59q-2 -18 0 -26q-8 -30 -8 -56q0 -8 1 -16q-32 -75 -32 -139v-11q6 -24 5.5 -45t-5.5 -40q10 -30 10 -56t-10 -49q0 -63 -0.5 -113.5t0.5 -88.5v-8q0 -56 13 -97l-7 -13l-6 -19l6 -40q-6 -54 -6 -93v-11q-28 -59 -33 -111z M486 999q-5 19 -5 37q0 41 29 71q4 31 0 57q22 21 41 28q48 168 254 245h14q64 0 110 -34q89 -8 117 -80q56 -17 71 -68l-18 -17q11 -29 11 -55q0 -31 -16 -59q-55 -28 -101 -34q-36 -24 -77 -24q-8 0 -17 1q-86 -43 -172 -43q-23 0 -46 3h-18q-30 -14 -59 -11 q-48 -18 -96 -18z" />
<glyph unicode="Q" horiz-adv-x="1490" d="M-770 299l12 -19q12 -29 12 -62v-13q32 -47 42 -93q45 -8 73 -46q66 -5 114 -47h18q68 29 123 29q12 0 22 -1l24 9q16 10 30 10l18 9q36 18 66 19l72 37q82 45 139 56q24 -34 30 -65q43 -22 60 -75q35 -21 54 -65l103 -38q55 -75 88 -75q41 0 50 113q-20 23 -30 56 q-86 29 -120 139q-49 32 -66 94l30 9l12 9q91 96 174 122l36 18q76 95 169 131q38 123 102 186q13 94 13 179q0 103 -19 194h-24v56l-18 19q-14 38 -18 74q-25 29 -30 65q-52 55 -78 122q-40 12 -66 55q-67 21 -109 66h-18l-18 -10l-18 10l-24 9h-151q-283 -117 -415 -410 h-60q-52 -75 -112 -75h-3q-25 -73 -66 -93q-28 -91 -72 -140q-39 -100 -85 -158v-28q-6 -44 -6 -75l-18 -9l-18 -112q-10 -80 -24 -130v-56zM-553 653l6 56l66 84q23 -3 36 -28q-3 -39 -3 -76q0 -249 118 -390h42q7 53 7 95q0 14 -1 26q-64 151 -64 315q0 65 10 132l24 19 l6 56q56 28 107 28q66 0 122 -47l60 19q9 48 9 92t-9 85q-65 31 -109 93q132 149 279 149h11q174 0 233 -167l54 -19l6 -56h24l12 -56q49 -45 78 -111v-103l-30 -28q-15 -115 -78 -122q-48 -116 -117 -145q-68 -106 -121 -106h-7q-46 -67 -79 -67q-74 0 -90 328 q-24 39 -30 84q-49 29 -91 29q-9 0 -17 -1l-79 -140q30 -96 30 -185v-11q53 -104 73 -186q-210 -66 -340 -66q-212 0 -212 175q0 96 64 245z" />
<glyph unicode="R" horiz-adv-x="1163" d="M64 -4q50 -29 100 -29q8 0 15 1q31 60 87 83l10 28q0 13 -1 26q0 37 5 65l-20 70l8 125l2 21l3 21l14 119q-1 12 0 23q0 66 24 116q35 -38 54 -70l25 -27l17 -28q23 -26 29 -49q53 -33 76 -70q90 -65 118 -126l33 -13l24 -28q37 -27 49 -63l27 -7l25 -21l20 -14l24 -28 l37 -42q89 -36 127 -104q80 -49 120 -105h21l15 7l65 14l26 49l-12 14l-5 14q-48 41 -66 90q-53 38 -74 84q-75 15 -119 56q-90 90 -125 90q-16 0 -20 -20l26 -14q102 -62 102 -64q0 -1 -65 37q-89 10 -89 60q0 19 12 43l-27 63q-45 53 -58 105q-66 59 -81 139 q-46 42 -44 98h49q50 -1 82 -14q38 12 69.5 11.5t55.5 -11.5l9 14h56q54 10 96 10q24 0 44 -3q77 55 149 77l9 21q64 83 88 153q-25 36 -25 75q0 11 2 23l-32 21l-24 97q-11 7 -12 14q-11 7 -12 14l-20 7l-13 14l-23 42q-53 43 -80 91l-47 14l-24 34h-21l-13 7l-38 28l-20 7 l-21 7l-20 7l-19 14h-21q-65 12 -107 35l-13 7h-11q-45 0 -72 7q-318 -39 -344 -181q-29 112 -53 112q-46 0 -77 -398q-4 -25 -4 -47q0 -16 2 -30q-21 -66 -21 -112v-15q0 -54 -13 -96l4 -28l-12 -42q6 -27 6 -53q0 -44 -16 -87q11 -64 11 -125q0 -94 -26 -181q7 -33 7 -63 q0 -33 -8 -63q2 -25 2 -48q0 -56 -13 -105zM356 936l6 52l2 19v22q0 79 19 140l37 20l-3 32q87 68 177 78l30 20l27 -13l20 -7l83 -6h21q50 -28 100 -33q189 -109 257 -253l31 -26l2 -45q-38 -37 -69 -52q-109 -26 -208.5 -26t-189.5 26q-20 -2 -37.5 -2t-31.5 2l1 13 q-33 -5 -57 -13l-13 13q-57 13 -87 32q-64 -1 -113 -13z" />
<glyph unicode="S" horiz-adv-x="1265" d="M0 351q73 -67 106 -139l41 -16q49 -34 90 -49l24 -8l49 -8q41 -39 82 -49q94 -16 163 -58h8h-8h8l41 9l25 -9l24 -8h90q42 -16 77 -16h4l49 16q47 -8 82 -8l25 8h24h25h57q49 -8 93.5 -8t85.5 8q29 30 57 41q98 30 156 98q21 52 21 100q0 56 -30 104l-24 8l-8 17l-17 8 l-8 16q-54 33 -81 65q-42 6 -66 41q-63 0 -106 25q-19 18 -24 40l-57 25q-91 62 -172 82q-37 57 -49 97l-90 33l-16 33l-49 16q-33 28 -65 33l-17 24l-16 16l-41 41q-82 51 -130 115q-28 76 -28 132q0 126 142 145q43 31 88 31q21 0 43 -7q29 4 57 4q128 0 220 -77 q121 -37 121 -117q0 -28 -15 -62l8 -58l33 -24q122 15 220 82q11 79 11 141q0 25 -2 46q-77 46 -115 114l-40 33q-90 34 -139 98l-98 8h-33h-21q-67 0 -118 17h-24l-98 8l-16 16q-34 -40 -74 -57q-195 -25 -335 -106q-43 -71 -73 -106l8 -25q-4 -62 -4 -113t4 -91l16 -16 q24 -42 49 -65q48 -86 90 -139l25 -8l24 -8l25 -41q31 -13 49 -33l24 -16q48 -25 74 -57q63 -27 98 -57q96 -44 155 -98q64 -2 98 -41l40 -8l17 -17l32 -8l180 -73l25 -17q69 -60 138 -81q21 -43 49 -66l-41 -48l-65 -9q-76 21 -130 25l-17 -8l-49 -17l-16 9 q-42 -10 -78.5 -9.5t-68.5 9.5q-52 -6 -101 -6q-146 0 -266 54h-58q-177 62 -277 115q-79 31 -82 187q-42 -2 -65 -8q-50 -103 -50 -199q0 -11 1 -21z" />
<glyph unicode="T" horiz-adv-x="1310" d="M-40 1391q-1 -17 -1 -33q0 -47 7 -84q50 -17 92 -17q17 0 32 3l19 14h20h19q7 9 13 8l104 36h20h19h20l104 14q32 0 52 -7q37 29 75 29h3l26 -7h26l91 -7h26h26h32q42 -1 72 -8l19 8h26q56 -17 110 -17q20 0 40 2l32 -14l33 -8h26l110 -21h26q37 -13 65 -15l26 -7l46 -8 l143 -29l32 -29q12 -1 23 -1q31 0 55 8v13q0 45 -19 75h-7q-52 0 -78 43q-20 -6 -39 -21q-10 7 -13 14l-91 22l-13 15h-26q-65 29 -128 29h-8l-7 14h-19q-69 6 -117 29l-33 -14l-58 14q-76 30 -141 31q-14 0 -28 -2q-43 11 -52 51l-59 15l-19 -7q-34 4 -66 4q-54 0 -97 -12 q-26 11 -52 8q-38 12 -71 14l-20 -14h-32q-60 0 -104 14l-78 -14q-68 15 -120 15q-16 0 -30 -1q-43 -46 -84 -65v-80zM410 65q18 -44 45 -65h72v22l6 22v21q7 39 20 59q3 54 13 87q2 30 2 55.5t-2 46.5l13 51l6 36v44l7 102l13 22v43l6 29v22l13 51l7 15v21q19 68 19 121v10 l20 30l13 21q14 57 39 95q23 93 65 153q-13 54 -13 96v6q-46 61 -111 65q-52 -9 -91 -29q-1 -61 -39 -87q-11 -48 -11 -91q0 -29 5 -55v-22v-29q-10 -46 -26 -80q-1 -42 -7 -73l-6 -116q-25 -36 -33 -65v-73q0 -41 -13 -73l-6 -22v-23q0 -61 -13 -108l6 -36l-6 -51l-7 -22z " />
<glyph unicode="U" horiz-adv-x="1210" d="M-10 630l16 -23v-180q-3 -60 -3 -109t3 -87q45 -60 54 -125q58 -36 94 -71l24 8h23q72 27 125 32l8 23l86 47l16 31l63 47l15 39q28 36 55 55q31 38 39 70l47 32v23l86 94l8 24q34 42 47 78l62 47q33 83 94 125l-8 -47l-7 -39v-47q-18 -46 -24 -86v-63l-8 -15 q-8 -43 -23 -71v-94q-9 -34 -9 -66q0 -10 1 -20l-31 -23q-3 -120 -16 -196q82 -79 147 -79q74 0 127 103q-17 52 -63 70l8 55q-8 52 -8 101q0 99 32 188l7 16l8 70v40l16 23v31l8 16v23v32v23v24l15 125l24 23l8 40q21 121 78 211q0 8 -1 15q0 78 48 126q5 96 39 164 q-33 125 -144 125h-12l-40 -31q-25 -62 -70 -94v-15q0 -125 -47 -220q2 -21 2 -40q0 -124 -88 -202q-53 -173 -180 -266q-27 -121 -125 -165q-50 -89 -133 -109q-94 -138 -243 -172l-39 39q-11 96 -11 176t11 145q-18 76 -18 147q0 127 57 236q22 158 133 243q14 71 55 117 q2 172 -141 219q-85 -24 -133 -78l-8 -118q-15 -30 -39 -47v-54q-10 -33 -10 -63q0 -16 3 -31q-49 -80 -49 -164q0 -16 2 -32l-40 -39v-39q5 -22 0 -39q-4 -31 -4.5 -58.5t4.5 -51.5q-7 -39 -7 -101v-16l-8 -24z" />
<glyph unicode="V" horiz-adv-x="1220" d="M0 1432q12 -25 14 -49q21 -32 28 -63q15 -72 15 -129q0 -17 -1 -32v-35q12 -7 14 -14l42 -181q23 -85 23 -158q0 -23 -2 -45q21 -67 28 -111v-21q9 -27 7 -56q15 -67 15 -120q0 -14 -1 -27l21 -21v-28q1 -17 -7 -28q21 -59 21 -111q0 -10 -1 -21q41 -85 42 -161 q50 -18 84 -21q33 21 63 28q47 72 91 112l7 21q39 58 49 104l35 35l28 49l7 21q72 114 97 203l28 21l14 55q73 86 84 168q39 36 56 63q18 64 49 105l7 28l35 42l7 20l35 56q42 70 55 126q42 28 42 71v6q66 80 147 105v76q-52 44 -106 44q-44 0 -90 -30q-16 -47 -48 -69 q-14 -43 -35 -70l-21 -21l-7 -14l-7 -63l-14 -7q-25 -97 -84 -154q-13 -78 -63 -118l-14 -7q-25 -127 -105 -203q-41 -144 -132 -230q-12 -85 -77 -126q-10 -58 -56 -91q-48 9 -70 42l-7 49q-7 22 -7 42q-33 91 -33 179q0 33 5 65q-20 34 -28 56l7 35q-5 24 -21 42v70v49 q-5 36 -21 63q13 56 13 105q0 33 -6 62l14 35q-18 28 -21 56l14 14l7 21l-14 14l14 49v125q-43 78 -122 78q-8 0 -17 -1q-96 -58 -126 -146v-28z" />
<glyph unicode="W" horiz-adv-x="1790" d="M-10 449q24 -78 24 -147q0 -40 -8 -76q30 -51 32 -103q69 -46 135 -48q8 14 16 16l8 16l40 40q55 27 87 71q25 61 72 88q11 59 55 79l8 24l24 16l8 24q54 65 72 127l24 8q7 14 15 16q64 97 120 151q23 -64 24 -111l8 -112l-16 -24v-55l8 -16v-88l-8 -24l-16 -151l8 -16 l8 -182q56 -52 119 -72q8 9 16 8q19 18 40 24l8 32l8 16q65 50 95 119l32 8l16 47l16 16l16 8q17 63 63 104q45 137 127 214q3 55 16 88q31 28 56 40q18 45 24 79l64 40q20 48 39 80l24 7q87 138 207 207q56 95 143 127q45 62 111 80q37 44 80 64q1 12 1 23q0 61 -33 104 l-24 8q-59 -34 -127 -40q-28 -34 -64 -40q-44 -62 -111 -79q-50 -85 -119 -127q-26 -40 -56 -56q-26 -61 -79 -88q-56 -103 -152 -143l-8 -24l-63 -127q-54 -72 -119 -103q-48 -174 -175 -263l-8 24v32v32v79v24l-8 24l8 24q-1 16 -1 31q0 45 9 80l-8 16v24l8 64 q-2 23 -2 45q0 63 17 114q-3 86 -31 143h-8h8h-8l-16 8q-35 15 -67 15q-45 0 -84 -31q-13 -56 -48 -88q-37 -159 -175 -206q-19 -183 -151 -215q-59 -161 -123 -161q-26 0 -52 26v24v23q-1 40 -8 64v32v24v24v31l16 175l32 56q-5 38 -5 74q0 93 36 165l8 23v32l8 32v64 q27 95 32 159q-74 96 -167 119q-41 -27 -79 -32l-16 -16l-40 -39q0 -39 -8 -64q29 -62 32 -119q-7 -58 -24 -96q26 -60 26 -116q0 -14 -2 -27q-19 -44 -24 -79q2 -20 2 -36t-2 -28q18 -52 18 -97q0 -15 -2 -30v-24l-8 -96q-8 -36 -8 -67.5t8 -59.5q0 -61 -24 -103z" />
<glyph unicode="X" horiz-adv-x="1280" d="M1 1387q10 -8 8 -17l74 -74l17 -49l33 -25q13 -13 16 -32q49 -86 90 -132v-25q42 -57 58 -106l16 -33q9 -13 8 -25l50 -33l8 -24l16 -50q10 -8 9 -16q59 -51 82 -107q-52 -146 -140 -230q-9 -65 -49 -99q7 -33 -8 -57q-3 -89 -25 -148l57 -99q19 -2 36 -2q40 0 71 10 l17 33l33 33q-3 18 -3 35q0 75 60 113v25q16 133 90 222l41 -9l33 -57l25 -25l33 -16l41 -58l74 -57l33 -17l57 -82q96 -33 156 -90q27 -3 52 -3q49 0 88 11q3 32 3 61q0 56 -11 103q-253 120 -378 337q-66 46 -99 99q1 46 17 82l16 25q32 37 66 57q46 116 131 181 q34 75 99 99l24 41q23 72 23 138q0 34 -6 67q-77 81 -139 81q-55 0 -99 -64q-77 -48 -91 -124q-38 -232 -197 -361q-37 48 -49 90q-69 89 -90 181l-17 8q-22 38 -25 74l-16 8l-8 25l-8 16q-37 77 -50 132q-50 70 -57 148q-67 33 -99 82h-107q-34 -43 -73 -58v-24 q-20 -70 -20 -137q0 -26 3 -52z" />
<glyph unicode="Y" horiz-adv-x="1203" d="M7 -258l26 -95l121 -16l121 70l55 98l8 42q33 40 38 77l30 22l8 28l15 28l23 28l7 28q75 91 99 170l30 21q25 65 76 99v21l16 7l30 49l30 35q29 57 61 92q18 67 46 113q12 68 53 106q7 60 46 98l7 71q26 30 38 49q5 40 23 71l53 84l8 14q29 86 91 134q33 63 76 99 q77 73 77 162q0 31 -9 64l-45 14l-15 7h-31q-39 -35 -84 -35h-7l-15 -21l-23 -22l-15 -35l-15 -14l-61 -63l-8 -14l-7 -43l-8 -21l-15 -7l-8 -21l-53 -85l-8 -63q-25 -39 -38 -71v-56q-26 -21 -38 -42q-12 -61 -53 -99q-24 12 -38 28q-34 -7 -68 -7h-15l-8 21 q-199 84 -258 261q-75 66 -75 148q0 24 6 49q-38 35 -53 71q-46 14 -87 14q-87 0 -149 -63v-22q-9 -26 -7 -56v-113l23 -21q27 -31 38 -63l15 -7l45 -71q77 -56 114 -134l31 -7l7 -21l23 -14l31 -7l22 -14l23 -7l23 -15q51 -36 106 -42l38 -28q55 -12 92 -28l76 -7l-8 -43 q-8 -11 -15 -14l-8 -14q-20 -53 -53 -92q-33 -100 -106 -162l-23 -21q-1 -81 -61 -120l-46 -127q-25 -34 -53 -56q-7 -12 -15 -14l-8 -50l-15 -28l-23 -14q-36 -96 -91 -155q-100 -2 -186 -113z" />
<glyph unicode="Z" horiz-adv-x="1580" d="M-59 1189l89 -10q81 16 133 57q27 4 49 4t39 -4l23 19l29 10h37h37q43 2 74 9q26 4 49.5 4t46.5 -4h22h22l59 10l15 9q15 -1 29 -1q61 0 104 11l81 -19q114 -18 114 -118q0 -16 -3 -35q-14 -118 -96 -152q-22 -64 -66 -77q-48 -111 -118 -162q-40 -48 -89 -66 q-64 -106 -155 -134q-70 -87 -158 -87q-10 0 -20 1q-76 -47 -147 -47q-8 -11 -15 -10q-24 -21 -52 -28l-44 -39q-10 -59 -10 -112q0 -156 84 -269q36 4 67.5 4.5t57.5 -4.5q34 11 62 11q10 0 19 -1q63 44 119 47q25 -15 51 -19l15 10l67 9l37 10l22 9h37l37 -9l22 9 q42 5 74 19q48 9 88.5 9t73.5 -9q55 2 89 10h30l162 -19q167 -118 316 -118q50 0 98 13v29l-15 28q-31 51 -44 96q-54 59 -81 123h-30q-71 41 -133 48l-22 19h-20q-131 0 -224 48l-22 -29l-37 10l-74 -10q-82 14 -145 14q-34 0 -62 -4q-73 24 -118 67q60 57 103 85 q74 123 155 172q21 48 60 67l14 28l15 29q68 105 118 162l15 67l8 19l14 19l67 133v29v172q-44 38 -59 95q-30 17 -45 48l-22 9q-30 14 -59 10l-15 9q-78 4 -133 29h-125l-30 19h-59l-52 -10l-81 19l-30 -9q-36 5 -69 5q-58 0 -108 -15l-22 10h-37q-46 -10 -84 -10h-12 q-82 14 -141 48q-153 -98 -153 -221q0 -92 87 -198z" />
<glyph unicode="[" horiz-adv-x="660" d="M40 -187l10 -87q37 -81 74 -85l61 -38q83 -9 167 -20l182 -12q-46 16 111 -9q13 14 26 12l117 75q-2 154 -104 238q-151 -145 -304 -110q47 -57 -85 71v38l-27 15q-80 158 -14 630v38l-13 37v38l26 163l-26 25l26 125q-15 60 0 100l26 200q17 148 52 251q93 58 326 -98 h117q118 96 142 226q-52 61 -117 87q-210 -19 -375 50q-43 -39 -200 -15q-47 14 -50 -55l-57 15q-56 -138 -13 -263q-5 -74 0 -125l-26 -38q-3 -32 -13 -50v-125q-13 -170 -39 -275q42 -149 13 -263l-13 -38q42 -550 0 -728z" />
<glyph unicode="\" horiz-adv-x="870" d="M3 1611q-13 -120 34 -202q61 -80 95 -142l15 -44l11 -88q41 -94 41 -176q87 -130 89 -247l26 -53l6 -53q19 -100 50 -167l43 -115l4 -35l-6 -26q55 -94 60 -177q64 -103 165 -151q117 68 93 192l-67 71q-53 62 -82 115l-19 79l6 27q-72 132 -69 246l-35 45l-19 79 q-38 119 -43 194q-4 19 7 26q-118 224 -110 423l11 70q-45 54 -52 106q-145 58 -254 3z" />
<glyph unicode="]" horiz-adv-x="720" d="M167 -372l75 -68q71 -29 126 -27q297 104 314 47l94 14l9 40q66 80 78 164l9 -45l-6 55l18 81q-10 21 -4 41l-12 109l8 55l-26 194l9 41v259l9 41q11 94 -4 163q35 128 30 232l-4 41l9 40q11 71 29 109q10 131 45 218q-7 84 -30 150q-62 45 -114 55q-195 -55 -195 -58 l-18 41q-105 -24 -169 55q-80 8 -139 27q-108 -100 -69 -245q52 -32 89 -68l69 -14h41l26 14q71 -7 112 -28q-10 27 105 3q3 -67 25 -109l-16 -231l18 -41q-37 -144 -12 -273l-6 -68l-2 -109q-22 -77 -21 -190l17 -236l-22 -299l-91 -17q-361 184 -404 -163z" />
<glyph unicode="^" horiz-adv-x="956" d="M88 1206l75 125l50 100l73 84l40 79l62 88l101 62l75 -12l57 -126l93 -112l21 -55l42 -83l25 -63l50 -87l-25 -63l-88 25l-88 50l-50 63l-37 138l-50 75l-101 -25l-62 -100l-38 -76l-75 -75l-50 -25z" />
<glyph unicode="_" horiz-adv-x="1010" d="M-25 191q-38 -75 23 -182l63 -8l78 8q106 27 215 -7q39 20 72 13l19 18l24 -10l24 -9q50 21 87 16l17 -11l51 9q47 -14 84 -12q88 -14 167 -4q57 86 -40 195q-108 12 -141 -20q-46 23 -76 20l-29 -5l-58 -11l-21 -4l-17 11l-36 -7l-39 7l-29 -5l-22 -4l-31 8l-22 -4 l-21 -4l-22 -4l-32 8l-21 -4l-24 10l-22 -4l-39 24q-60 13 -109 29z" />
<glyph unicode="`" horiz-adv-x="653" d="M216 1847l8 -50l99 -121q69 -38 107 -86q63 -41 94 -80l17 -15l79 -97l40 -49q35 2 51 -22l70 38q64 156 -272 298q-122 162 -293 184z" />
<glyph unicode="a" d="M0 334q10 -35 10 -73q0 -16 -2 -33q18 -32 7 -61q34 -27 46 -62q50 -37 76 -87h153l45 -18l16 18l175 79q8 15 15 17q26 36 54 53l76 79l23 26q41 38 61 70l15 18l15 9q39 49 69 70q13 29 30 44q-1 -26 -1 -51q0 -380 279 -380q13 0 27 1q115 62 115 107q0 51 -146 83 q-88 77 -98 255q16 191 61 248q-21 63 -21 91q0 19 10 23l-12 79l-38 9l-38 -9q-57 14 -99 53q-41 -18 -81 -18h-11q-66 38 -127 38q-17 0 -33 -3q-26 19 -54 19q-7 0 -15 -1q-7 -10 -15 -9l-130 -44l-22 -8q-35 -39 -69 -44q-35 -43 -76 -53q-29 -40 -61 -53l-8 -35 q-38 -52 -76 -79q-7 -52 -38 -79l7 -26l-7 -26q-25 -46 -61 -62q-3 -87 -46 -149v-26zM282 263q-48 72 -48 135q0 81 79 146q47 115 144 132q42 58 168 61h6q120 0 170 -114l-31 -9q-36 -86 -99 -122q-35 -94 -122 -97l-23 -61q-38 -2 -61 -9q-84 -62 -170 -62h-13z" />
<glyph unicode="b" horiz-adv-x="1334" d="M-30 591q46 -43 58 -102l15 -17q30 -7 56.5 -7t49.5 7q13 15 26 21q17 54 61 61l12 29l11 8l3 12q13 16 14 33l9 8l3 8q32 31 47 62q8 1 16 1q37 0 45 -29l11 -4q16 1 31 1q66 0 116 -21q10 1 19 1q63 0 105 -42q35 0 54 -29h2q28 0 69 -59q96 -40 138 -131v-16l-3 -25 q20 -25 20 -54q0 -47 -53 -106q-50 -16 -81 -45q-33 11 -58 8q-27 -6 -47 0l-11 -4l-12 -4q-77 0 -127 -16q-40 15 -76 15q-15 0 -30 -3q-12 10 -19 24l-7 5q-34 56 -58 67l-7 8q-1 53 -26 86q-28 5 -51 0q-58 -102 -58 -165q0 -41 25 -64q26 -68 88 -78l19 -20 q61 -6 101 -45h18q13 19 30 29l29 -9q27 2 44 -8q37 4 62 13l40 -9l15 4h18h14h19l11 5h10h52q30 9 57 9q10 0 20 -1q62 52 128 61q12 19 21 29q163 24 163 236q0 49 -9 107q-55 54 -55 127v8q-52 34 -76 85q-29 17 -44 41h-12q-21 6 -40 4q-28 40 -40 78q-32 18 -51 41 l-7 4q-71 30 -114 77h-10q-16 -6 -30 -4l-7 13q-64 14 -105 49q-25 -7 -41 -9q-40 27 -80 27q-11 0 -22 -2q-25 15 -41 33h-10h-15l-11 -8q-21 0 -37 4h-11q-34 -12 -61 -9q-27 -25 -56 -28q-13 -19 -28 -25q-8 30 -8 58q0 32 11 61q-11 39 -11 74q0 55 26 101v13 q0 39 10 69v12q0 10 1 19q0 36 -4 63q-4 4 -4 8l-7 8l-4 9q-10 30 -22 49h-11q-21 6 -40 8q-28 1 -47 8q-33 -25 -66 -29q-15 -51 -48 -81q-5 -32 -5 -62q0 -79 38 -138v-107q-3 -20 -3 -50v-15l3 -8l4 -8v-49l4 -25l11 -24q-5 -62 -29 -107q8 -35 8 -64q0 -9 -1 -17 l-22 -17l-4 -20z" />
<glyph unicode="c" horiz-adv-x="1069" d="M70 605q-69 -90 -69 -197q0 -113 76 -245l7 -13q48 -34 77 -68h21q11 -7 14 -14q83 -34 132 -68l182 7h35l21 13l28 7h28h21q66 37 126 41q66 34 126 34h13l14 20l28 7q7 12 14 14l14 7l112 68q1 26 -14 40l-45 26q-13 11 -72 11q-73 0 -215 -17l-35 -34l-84 -7l-14 -7 l-161 -27q-125 34 -205 151v11q0 145 74 257l2 24l77 89q99 60 154 68l28 20l21 -7v-27q-7 -7 -14 -7v-41q-23 -48 -23 -89q0 -13 2 -26q23 3 44 3q54 0 96 -17q71 52 139 61l14 21q87 100 105 218q-48 70 -63 142l-153 14q-74 -38 -144 -38q-22 0 -45 4q-48 -27 -93 -27 h-12l-35 -41l-42 -7l-7 -20q-28 -23 -56 -34q-50 -53 -104 -75l-7 -20q-15 -22 -35 -28q-19 -39 -49 -61q-26 -47 -49 -75v-41z" />
<glyph unicode="d" horiz-adv-x="1240" d="M0 419q18 -45 18 -128q0 -56 -8 -130q28 -43 28 -92v-9l49 -22q108 -43 204 -43h20q73 53 141 65q7 13 14 15q34 25 63 36l7 14q17 15 35 22l7 14q7 9 14 8q7 8 14 7q92 87 281 258q-51 26 -54 26t56 -33l-19 206q-3 -55 -3 -104q0 -339 137 -436l-14 -21q16 8 30 8 q23 0 40 -23l63 -7l84 58l-7 58q-44 51 -91 72l-70 130l7 51l7 43v29v29v29l7 21q-1 20 -1 39q0 96 29 171l-14 36l14 51q11 41 14 72l14 15q40 96 41 161v22l7 22v21q10 37 21 58v36l7 29l14 8q-2 17 -2 33q0 49 16 89q-6 61 -6 97v16l-84 22l-7 -14l-14 -8l-70 -94 q-15 -118 -63 -195q-8 -112 -50 -195l7 -51l-35 -29l14 -14l-7 -36q-8 -116 -35 -195l-49 -22q-34 140 -154 166q-42 38 -86 38q-10 0 -20 -2q-62 44 -120 44t-111 -44h-84l-14 -21l-21 -15l-14 -14l-15 -22q-16 -16 -35 -22q-30 -64 -70 -101l-7 -21q-11 -44 -14 -80 q-7 -12 -14 -14v-29l-7 -15q-22 -52 -21 -94zM290 274q-72 19 -72 104q0 90 81 253q66 65 146 87q49 12 87 12q131 0 140 -142l49 -22l-9 -43h-24l-57 -29q-203 -172 -341 -220z" />
<glyph unicode="e" horiz-adv-x="920" d="M0 420q10 -36 13 -63l12 -100l6 -19l19 -12l13 -44q40 -39 56 -75l19 -7l12 -18l32 -7l19 -6l12 -13h19l13 -6l119 -50l25 6q29 6 50 0l19 7h37l51 6q62 12 111 12h14l13 25h18q36 18 76 19q28 33 70 33q6 0 11 -1q16 29 44 37l-6 57q-24 -2 -46 -2q-41 0 -73 8 q-29 -10 -55 -10q-17 0 -33 4q-88 -19 -171 -19q-116 0 -224 37q-17 32 -44 44q38 52 81 76l25 25l32 19l31 12q75 84 157 119l6 19l19 6q52 61 113 88q19 54 69 69l12 75q36 46 36 89.5t-36 86.5q-47 33 -94 37l-12 7h-6q-57 0 -95 19q-6 -8 -12 -7q-148 -11 -257 -75 l-19 -38l-50 -12q-48 -34 -88 -44q-4 -12 -13 -13q-12 -32 -25 -50q-90 -105 -106 -213q-5 -22 -19 -38v-25l13 -31zM251 564q9 84 81 119q61 88 161 88h2q23 27 51 38l56 -13q-21 -101 -113 -131q-51 -75 -125 -75q-21 0 -44 6q-24 -33 -58 -33q-5 0 -11 1z" />
<glyph unicode="f" horiz-adv-x="1200" d="M-60 504q4 -90 91 -144l39 14l20 -7h20q22 1 42 1q49 0 88 -8q26 8 54 8q12 0 24 -1l7 13l52 -13l13 -7q27 4 53 4q52 0 97 -17v-19q11 -27 7 -52q39 -83 39 -228v-28l91 -20q100 9 105 178q29 36 29 72q0 40 -36 78l39 19q24 -6 44 -6q62 0 80 59q-26 85 -108 85 q-11 0 -22 -1q-31 27 -59 33l17 20v71q-7 18 -6 33v26v20v20q0 40 6 71l-6 13v20v19v85v8q0 43 19 70q-3 45 -3 85q0 55 6 98q0 31 6 52l46 26v39h19l111 20l20 -13q15 -39 19 -66q25 -13 40 -32q14 -70 58 -118q7 -1 13 -1q48 0 59 47v33q-3 33 -3 61t3 50v19q-8 26 -8 54 q0 12 1 24q-53 67 -117 92q-21 54 -124 65h-19q-68 -14 -98 -65q-130 -26 -157 -157q-76 -58 -76 -161q0 -23 4 -47q-22 -32 -32 -53q12 -49 12 -93t-12 -83l19 -32l-13 -26q-3 -21 -3 -41q0 -37 10 -70l-20 -144q-62 -18 -119 -18q-75 0 -142 31l-72 -6l-65 13l-6 13h-20 q-58 27 -104 32q-7 -7 -13 -6l-7 -13q-22 -62 -52 -98z" />
<glyph unicode="g" horiz-adv-x="875" d="M-115 -23q-12 -54 -12 -103.5t12 -95.5q-10 -43 -10 -83q0 -67 29 -122q9 -34 7 -60q27 -25 40 -53v-20l26 -46q23 -32 33 -53l14 -14v-20q34 -38 46 -79l20 -13q37 -33 53 -67l33 -26q57 -38 86 -80l47 -6q60 -34 120 -34q10 0 19 1q62 1 106 13q173 172 239 378l13 7 l7 19v20v47v20q12 23 13 53q8 39 8 70q0 12 -1 22l6 27l7 20q-9 25 -7 53l7 20v132q-21 92 -21 205q0 47 3 97q13 171 32 265q-58 111 -58 205q0 60 24 113v11q0 80 40 135q-8 35 -20 53h-26h-40h-53l-20 -108l54 95q-58 -19 -120 -33q-1 -56 -27 -87q-64 22 -122 22 q-36 0 -70 -8q-48 11 -79 13q-35 -35 -67 -53q-114 -34 -132 -139l-40 -20q-22 -55 -53 -86q-6 -37 -6 -70q0 -175 153 -263q189 100 323 286q42 14 75 14h12l6 -27l13 -20v-106q8 -10 7 -20q3 -47 13 -79q8 -177 8 -260q0 -45 -2 -62l20 -40q-5 -31 0 -53l-7 -33v-27v-19 q-8 -28 -8 -53q0 -14 2 -27l-13 -20v-20q-7 -31 -7 -53l-7 -20l-6 -20l-7 -46l-26 -146q-7 -11 -14 -13q-18 -77 -46 -126q-38 -31 -73 -40q-40 -11 -73 -13q-111 35 -172 113q-92 34 -119 119q-63 64 -73 146l-27 20v20q-7 24 -6 46q-34 70 -34 132v7q-49 54 -49 119 q0 17 3 34zM230 456v94q84 82 139 107q12 1 21 1q32 0 32 -19q0 -15 -20 -42q-36 -100 -172 -141z" />
<glyph unicode="h" horiz-adv-x="1050" d="M-20 358q53 -170 179 -170q20 0 41 4q34 61 84 91q34 105 98 166q24 57 54 92h38l7 41q106 67 205 75q14 -27 38 -33v-25q14 -49 15 -92l23 -41l8 -25v-116q14 -57 14 -108q0 -35 -7 -67l38 -25q2 -80 61 -107q32 -33 63 -33q34 0 66 41q0 48 -15 83l-8 16q4 29 5 55 q0 57 -20 103q4 32 4 61.5t-4 54.5l15 17l-7 33l7 25q-5 38 -15 67v33l-15 141q-61 79 -84 158l-22 25h-54q-77 35 -129 49l-22 -8q-12 -9 -23 -8q-12 -10 -23 -9h-23l-121 -33l-15 -16q-42 -42 -76 -58q-40 -51 -91 -75l-8 58l8 25v166l7 25l8 25l7 33l8 25q-4 29 -4 56 t4 52q16 47 15 90v18q26 107 26 193q0 29 -3 56q-61 51 -91 116h-69q-46 -37 -98 -42l-8 -24l-38 -108q35 -69 35 -136q0 -24 -4 -47q34 -63 34 -127q0 -48 -19 -97q13 -48 13 -91q0 -64 -28 -117q7 -68 7 -128q0 -212 -91 -320v-83z" />
<glyph unicode="i" horiz-adv-x="590" d="M36 286q-4 -49 -4 -90q0 -205 92 -205q40 0 97 38l6 20q-26 62 -26 112q14 49 33 79q9 43 33 73q56 210 116 275q-11 152 -159 172l-39 -33q-23 -39 -46 -60v-26q-33 -118 -63 -308q-27 -21 -40 -47zM135 1284q11 -7 13 -14q8 -6 7 -13q20 -54 39 -86q56 -6 93 -39 q25 9 50 9q14 0 29 -3q47 -51 91 -51q21 0 41 12q9 24 9 50q0 15 -3 29l-46 20l-13 19q-32 91 -86 146q-2 36 -20 59q-55 18 -92 20l-92 -53v-5q0 -57 -20 -100z" />
<glyph unicode="j" horiz-adv-x="570" d="M-50 -387q26 -16 40 -38q20 -5 38 -5t33 5q25 42 63 63l8 25l23 25l16 12q24 32 32 50l16 12l15 19q23 32 56 50q12 40 39 62q8 52 24 87l32 44v18l7 44l16 6q7 34 32 62l8 75l31 87l8 44q10 52 32 87l-8 18l8 44v62q10 35 10 67q0 14 -2 27q11 60 39 99v12q0 75 24 125 q-52 72 -134 87q-45 -27 -95 -31l-24 -31v-19q-8 -112 -39 -186q8 -28 8 -54q0 -38 -16 -71q14 -36 16 -68l-8 -38q0 -31 8 -49l-8 -19l-8 -106v-81q-46 -83 -56 -143l-31 -19v-18q-33 -62 -48 -106l-39 -25q-40 -119 -142 -187q-6 -72 -24 -124zM370 1291l2 -14 q-6 -55 -6 -92t6 -54q10 -8 12 -13q49 -24 83 -60q65 22 65 34q0 6 -16 9q35 -13 60 -13q7 0 14 1l-1 13q-13 28 -15 46q4 14 4 43q0 20 -2 46q-18 28 -26 49l-17 6l-116 40l-5 -7z" />
<glyph unicode="k" horiz-adv-x="1270" d="M-10 168q1 -108 71 -171q52 0 86 -7q11 8 21 7q61 45 122 57q9 12 21 14l21 15q35 44 86 50v21q59 17 93 57q50 -9 78 -43q108 -17 179 -78q121 -77 238 -77q92 0 182 48v22q-18 26 -21 57q-39 17 -57 43h-5q-95 0 -145 71q-52 15 -52 44q0 12 9 27q-78 33 -100 114 q26 34 43 50q35 17 57 22q14 26 43 35q13 26 29 43l21 21l21 8l29 14l7 21h22l71 43q38 40 78 57q29 59 36 107q-34 12 -62 12t-52 -12q-52 -50 -107 -57q-32 -60 -86 -78l-50 -8q-17 -49 -64 -64q-52 -17 -85 -35q-67 -53 -136 -65q-38 -44 -78 -64q-30 -64 -94 -64h-6 q-33 -47 -79 -57q-14 -38 -43 -57q-19 -12 -30 -12q-17 0 -20 26q6 136 58 178v15q0 83 42 142q2 22 2 41.5t-2 37.5l15 28l14 22l7 21l7 21l7 22q60 74 79 142l14 15l64 64q31 65 72 100v21v22l7 49q0 46 7 79q-68 72 -152 72q-9 0 -19 -1q-45 -63 -107 -92l-15 -50 q-30 -110 -35 -179l-15 -14q-23 -82 -71 -128q2 -14 2 -28q0 -72 -45 -122q-6 -71 -43 -114q1 -120 -49 -207v-13q0 -51 -29 -80q1 -53 -21 -92q-81 -45 -86 -129z" />
<glyph unicode="l" horiz-adv-x="430" d="M5 98q52 -37 65 -89h24q26 -9 51 -9q7 0 14 1l24 32l9 49q-7 52 -7 101q0 125 47 232v24l-8 25l8 16q35 99 41 170l16 9q-2 25 -2 49q0 50 10 89l8 48l32 25l9 24v41v24q56 134 56 263v13q44 34 49 81q-17 25 -17 52q0 6 1 13q-42 33 -42 80q0 8 1 17q-44 25 -83 25h-6 l-105 -57q-17 -63 -57 -97v-171q-6 -14 -16 -16q-6 -92 -33 -146l8 -25v-121q-8 -96 -8 -163l-32 -40v-49l-8 -16v-25q-8 -38 -8 -65q-42 -89 -42 -214q0 -18 1 -37q-1 -48 -1 -88.5t1 -74.5z" />
<glyph unicode="m" horiz-adv-x="1390" d="M0 158q27 -96 82 -150q54 13 103 13h13q14 32 41 41l7 21q7 11 14 13v28l7 27v21l7 13v28q32 58 34 109l41 48q7 58 48 89q11 43 27 68q23 -38 23 -75q0 -10 -2 -20q-16 -24 -41 -35v-34q-39 -80 -41 -150h20q40 -109 144 -123q38 59 89 82l20 20l34 69q33 38 62 54 l14 21l27 27q22 56 61 82q55 92 130 137q25 54 62 82q45 8 75 34q32 7 62 7h14l13 -14q-16 -38 -16 -74q0 -14 3 -28q-11 -104 -69 -164q23 -26 23 -62q0 -22 -9 -48q-46 -62 -46 -153q0 -46 12 -100q46 -61 113 -61h10q23 28 41 41v68l7 21q-10 54 -10.5 103.5t10.5 94.5 q121 197 121 375q0 125 -60 240h-12q-65 0 -111 21q-26 -15 -51 -15q-6 0 -11 1q-22 -54 -82 -54q-73 -103 -171 -144q-21 -39 -61 -55q-55 -139 -185 -184l14 48q-5 21 -5 41q0 39 18 75q-45 40 -45 92q0 15 4 31q-84 92 -148 92q-86 0 -139 -161h-34q1 12 1 22 q0 138 -118 139q-16 0 -34 -3q-22 -30 -54 -41q-4 -52 -21 -89l-7 -28l7 -34l7 -13q-21 -45 -21 -84q0 -6 1 -12l-7 -21q12 -41 13 -75q-3 -65 -27 -109q9 -36 9 -67q0 -15 -2 -29q-41 -68 -48 -130z" />
<glyph unicode="n" horiz-adv-x="1090" d="M-20 239q58 -146 157 -146q20 0 42 6q31 49 81 66q15 94 59 155v5q0 50 37 83q17 109 103 155v37q65 39 88 103l52 -15q29 30 62 30q37 0 78 -37q57 -123 57 -247q0 -87 -28 -173l8 -44l15 -133q58 -79 141 -79q20 0 43 5q31 27 31 84q0 64 -39 167q9 28 8 59v22v96 q24 36 29 66l-7 15v66q-24 54 -24 104q0 15 2 29q-13 19 -15 37q-66 65 -88 140q-96 30 -140 103q-34 -14 -63 -14t-55 14h-67l-22 -22q-58 -77 -118 -111q-41 -93 -110 -147l-8 44q36 40 36 76q0 80 -176 138q-55 -44 -103 -59q-10 -43 -29 -74q19 -34 19 -67t-19 -65 l29 -23v-6q0 -44 -14 -75q11 -45 11 -88q0 -66 -26 -125q1 -92 -37 -155z" />
<glyph unicode="o" horiz-adv-x="1260" d="M53 436q-40 -34 -40 -89q0 -95 115 -254q23 -36 59 -52q30 -47 75 -67h59q6 43 38 60q24 2 45 2q46 0 81 -10l23 23h22q37 8 67 8q11 0 22 -1q100 49 179 60l15 22l15 15q75 28 119 75q107 44 164 119l37 7l30 38q36 94 97 149v14q0 90 -37 157q1 9 1 18q0 85 -53 146 q-81 31 -127 60q-84 3 -142 37q-15 -3 -29 -3q-34 0 -60 18q-80 -33 -157 -32q-22 0 -44 2q-139 -91 -283 -97l-45 -37q-59 -24 -97 -52q-28 -121 -104 -172v-67q-43 -42 -45 -97zM283 484q39 9 44 44h43q50 -45 102 -45q70 0 144 81l-29 36l7 15q9 82 22 130l87 29 q26 3 51 3q133 0 217 -83q109 -33 109 -134q0 -9 -1 -18q-89 -107 -210 -116q-16 -40 -53 -40q-12 0 -26 4l-29 -50h-65q-101 -68 -227 -68q-48 0 -99 10l-14 21l-29 -7q-45 85 -45 168q0 10 1 20z" />
<glyph unicode="p" horiz-adv-x="880" d="M12 104q6 -60 6 -102v-11q7 -10 7 -19l6 -13l19 -37q-4 -64 -13 -107q24 -36 25 -69q67 -32 128 -32q9 0 17 1q9 27 31 37q8 40 31 63q4 46 13 75l-13 51l7 31q4 36 0 63l-7 19l7 31l6 13q-1 14 -1 28q0 58 14 103q-2 11 -2 21q0 23 8 42q19 14 37 19l26 -44l44 6l138 19 l18 13l19 6l25 6q56 42 120 44q33 33 69 44q6 11 12 13q20 29 44 44q7 11 13 12l6 19l6 19l13 13l12 12l7 13l6 18l44 76l-13 12v51q-23 38 -25 75l-25 19q-22 28 -31 56l-13 13q-44 27 -63 69q-43 21 -62 56q-16 2 -25 7q-42 23 -63 44l-19 6q-7 6 -6 12q-51 19 -82 38 l-25 -6q-73 12 -124 12h-14q-47 -41 -94 -50q-29 -46 -69 -63l-7 -44l-25 -12l-6 -25l-6 -19l-25 -31q-15 -53 -44 -88q-10 -82 -51 -132l-6 -44l6 -13q-7 -41 -7 -75q0 -13 1 -25l-19 -32l-6 -213v-138zM213 599q-19 26 -19 55q0 44 44 96q39 153 182 195q165 -5 258 -120 q78 -21 100 -81v-51q-214 -206 -477 -226q-3 28 -19 44v19q-13 36 -19 69h-50z" />
<glyph unicode="q" horiz-adv-x="1190" d="M51 252q-26 -44 -26 -74q0 -73 147 -73q53 0 126 10l7 13l20 7q23 15 48 21q69 66 81 82q-2 -26 -21 -41q-57 -140 -57 -220q0 -18 3 -32q-9 -99 -43 -99q-3 0 -6 1q-6 -91 -48 -158v-47q-13 -74 -25 -137q-25 -16 -41 -34q-5 -67 -41 -110v-20l-35 -55l-6 -14 q-13 -44 -35 -68q2 -85 41 -144q98 0 165 48q26 58 68 89l21 62l20 20l14 7v21q56 70 75 136q65 70 89 151l28 7l7 34l27 34l21 48q29 32 34 62q58 57 82 116l21 14q20 93 82 144q26 83 89 130v48l20 14l21 20l7 28l20 6l14 48q61 56 89 110l34 14q8 55 50 55q6 0 12 -1 q60 156 208 156q22 0 45 -3q20 67 20 109q0 72 -58 72q-29 0 -73 -18l-87 -28l-28 -14q-20 -87 -103 -102q-6 -79 -75 -96l-14 -48l-41 -28q-7 -8 -13 -6q-17 -70 -62 -117l-21 -41q-30 -42 -61 -62q-34 -64 -75 -102v-34l-28 -21l-7 -27l-13 -28q-34 -33 -48 -61 q-24 -43 -28 -76q-61 -64 -82 -130l-34 -7l-7 -41l-41 -13q-2 -41 -27 -69v27l6 14q19 51 41 82v55l21 14q22 122 68 205h21l-7 14l7 14q21 74 48 116q33 135 123 219q39 102 110 165q13 3 24 3q33 0 58 -24q48 7 75 21q24 49 62 75l27 48v20q-49 100 -54 185 q-59 47 -124 55h-7h7h-7l-82 -48h-20q-56 15 -103 15q-11 0 -21 -1q-72 -44 -137 -55l-20 -14q-33 -13 -55 -27l-61 -34q-52 -56 -117 -69q-31 -60 -75 -89l-14 -48l-27 -7q-22 -33 -48 -54q-46 -91 -117 -137v-21q-41 -89 -48 -157zM271 317q73 162 212 233q97 102 219 130 q22 0 27 -20l-34 -21q-44 -210 -246 -239q-67 -84 -163 -84q-7 0 -15 1z" />
<glyph unicode="r" horiz-adv-x="890" d="M10 65q48 -51 104 -65l26 6q21 25 26 52l58 33q28 40 59 59q-7 41 -7 80q0 133 78 238q20 113 98 182q61 128 176 128q81 0 188 -63q68 32 68 83q0 10 -3 21l-13 19l-7 7q-45 39 -65 71v7v-7v7q-53 15 -91 45l-13 7q-19 -3 -37 -2q-44 0 -80 15q-20 -26 -48 -26 q-14 0 -30 6q-31 -69 -97 -84q-18 -38 -26 -72q-51 29 -100 29q-15 0 -30 -3l-91 -116l-7 -26l-6 -52l-13 -59l-13 -7q-7 -50 -26 -84q-1 -71 -26 -124q9 -24 6 -52q-63 -98 -63 -198q0 -27 5 -55z" />
<glyph unicode="s" horiz-adv-x="880" d="M0 771q-1 -16 -1 -32q0 -42 8 -78l30 -22h29l15 -22q80 -34 124 -88q83 -16 132 -73l14 -7q113 -19 191 -73q87 -35 87 -63q0 -41 -175 -69q-11 4 -22 0q-90 22 -151 22h-10l-15 7q-48 54 -88 81v7v-7v7q-38 -21 -73 -29l-14 -51q7 -64 7 -112v-20q171 -141 334 -141 q124 0 244 82l59 -7q35 70 95 102l29 88q11 41 11 78t-11 69q-56 29 -80 73q-101 9 -132 88l-59 -15l-14 15l-22 7l-22 15l-15 14q-93 44 -146 95q40 22 85 22q73 0 156 -58q42 43 88 51q11 58 37 95l-15 59l-29 95h-22l-15 7l-15 8h-22h-51l-80 7q-68 -36 -139 -35 q-44 0 -88 13q-40 -33 -80 -33q-23 0 -45 11l-14 -22l-15 -7q-20 -38 -44 -59q-17 -58 -51 -95z" />
<glyph unicode="t" horiz-adv-x="1290" d="M10 795q-4 -28 -4 -55q0 -81 38 -151l48 -13v-55h42q72 68 157 68l-7 -34l-13 -20q5 -29 -14 -41l-7 -21l-7 -21l-7 -27l-20 -14l-14 -55l-7 -13l-7 -14q-7 -64 -27 -110q41 -38 55 -82q57 -38 82 -96l34 7l55 -21h21h27l172 -27l13 7l48 7l21 7l137 6q38 20 69 21 q96 34 173 34h12l7 41q101 28 157 76q0 42 -34 55q-103 -68 -206 -68q-45 0 -89 13h-96q-80 -21 -147 -21q-173 0 -264 137q2 150 82 247v5q0 86 62 118l7 28l41 7q35 7 67 7h8h21q10 7 20 6h21l137 14l14 -7h20l21 -7h20l21 7q37 -3 67.5 -3t55.5 3q36 -5 69 -5 q85 0 151 33l14 -7h48l41 -7q24 18 34 41l-14 41h-20l-14 14q-56 2 -89 34q-52 2 -89 21q-7 -8 -14 -7q-15 2 -30 2q-28 0 -52 -9l-21 21l-27 -7l-35 7h-34l-34 -7l-21 7h-20h-35l-20 6q-54 -5 -100.5 -5t-84.5 5q17 64 41 110q191 213 191 321q0 100 -164 111l-13 -27 q-64 -47 -96 -96v-21q-22 -66 -21 -116l-20 -14l-14 -21q-28 -107 -96 -171q-14 -44 -34 -76q-35 7 -62 7h-7l-27 -20q-40 2 -74.5 2.5t-63.5 -2.5q-68 -34 -133 -34h-11q-27 -56 -82 -76z" />
<glyph unicode="u" horiz-adv-x="1250" d="M-6 266q56 -39 84 -84h21q36 3 62 21h21l77 7l56 14q66 49 132 63q41 24 70 28l7 14q32 18 49 41q38 11 69 14q91 103 202 147l-20 -112q-7 -11 -14 -14l-7 -21l-7 -48l-14 -21q2 -18 2 -36q0 -53 -16 -97l28 -28q19 -156 167 -174l42 56q-27 91 -27 164q0 82 34 143 q0 137 90 223v21l7 28l7 13l14 14l7 42q36 41 49 84q6 34 6 65q0 56 -20 102q-51 40 -103 40q-18 0 -36 -5q-17 -68 -70 -91q-69 -188 -272 -258q-54 -61 -125 -83q-113 -98 -244 -98q-34 0 -70 7q12 46 35 70q34 136 118 223q8 47 35 77q1 45 7 76q-24 36 -35 63l-49 14 l-13 7l-84 21l-21 -14q-24 -25 -49 -28l-35 -35l-7 -21v-21v-15q0 -33 -7 -61q4 -20 3.5 -37.5t-3.5 -32.5q-148 -233 -153 -467z" />
<glyph unicode="v" horiz-adv-x="770" d="M0 741q17 -56 19 -96l20 -17v-28l6 -51q14 -35 39 -57v-45l20 -40v-22q7 -6 6 -12v-22q21 -57 20 -108v-17q21 -22 32 -45v-62v-40l13 -34q47 -37 98 -45q52 99 117 153q3 55 19 90q7 39 26 63q1 68 39 118v63l26 11q8 44 39 68q10 47 39 73l13 40l19 11q17 41 46 62 q11 38 39 57q56 112 156 170l19 34q-12 28 -26 45h-32q-7 -10 -13 -11q-10 -7 -20 -6q-61 -30 -91 -74l-32 -11q-31 -52 -72 -79q-22 -58 -71 -85q-13 -54 -46 -85l-6 -17l-84 -147l-20 -6q-25 -95 -97 -152v22q-11 8 -13 17v97q-12 31 -7 56v17v23l-13 11l7 17q1 14 6 23 q-16 46 -16 90q0 20 3 40q-37 53 -97 62q-94 -40 -130 -102v-17z" />
<glyph unicode="w" horiz-adv-x="1160" d="M0 651q11 -7 13 -15q10 -47 31 -73l-13 -51q3 -42 19 -80v-6q0 -38 -12 -68q12 -13 18 -51l-6 -51q10 -28 13 -58q26 -60 31 -110q67 -67 119 -88l25 15q48 42 87 58q48 65 101 95l6 44q40 40 56 88l38 -44q-1 -14 -1 -28q0 -125 57 -206q122 24 181 124l32 15 q31 105 87 161q16 77 57 117l18 22l32 66l19 14l6 22l19 8q30 69 81 102l6 37q70 50 107 117l68 22q2 7 7.5 14.5t11.5 6.5q33 44 56 66q62 3 107 30q4 20 3.5 38.5t-3.5 34.5l-38 14q-20 -16 -31 8l-38 7l-12 -15q-47 -22 -90 -22h-4q-56 -45 -106 -51q-63 -105 -150 -153 l-13 -37q-32 -40 -56 -58l-7 -22l-50 -66l-12 -15l-31 -36q-9 -53 -44 -59q-19 -79 -69 -117l-38 29q-16 160 -93 271h-19l-44 7q-13 -23 -31 -36v-9q0 -43 -35 -43h-3q-64 -223 -219 -329q-32 48 -31 103l31 80l-6 37v8q0 49 12 87v22q0 100 -12 168l-19 15q-36 30 -50 65 l-31 8q-46 -75 -119 -95q-7 -37 -19 -59q6 -27 6 -51t-6 -44z" />
<glyph unicode="x" horiz-adv-x="930" d="M-30 1026q75 -76 104 -162l8 -23q62 -66 72 -140q47 -42 56 -96q34 -25 40 -60q48 -42 71 -81q-29 -139 -151 -200q-18 -42 -56 -51q-23 -55 -48 -89l56 -119q18 -1 34 -1q49 0 86 9q28 35 63 52l16 66l24 15l8 15l104 111q37 -6 64 -15l8 -37l32 -15l8 -15 q49 -28 72 -59q14 -7 16 -15q71 -18 112 -59q43 -10 71 -29l16 7q94 6 144 52q-83 48 -128 111q-148 83 -199 192l-40 30l8 37l24 7q42 65 104 89q17 69 79 96q13 48 40 74v20q0 48 8 84q-44 55 -56 103q-51 19 -96 19q-177 0 -247 -300q-38 52 -72 81q-21 43 -32 82l-8 22 q-67 95 -80 185q-23 27 -31 52l15 44q-29 46 -31 89q-36 59 -96 74q-194 -48 -194 -217q0 -17 2 -35z" />
<glyph unicode="y" horiz-adv-x="1282" d="M260 698l24 -8q16 -128 58.5 -198t70.5 -124q62 -52 86 -81t137 -104l145 -8v-24q-48 -57 -48 -121v-8q-41 -50 -41 -103q0 -9 1 -18q-103 -234 -103 -467q0 -84 14 -169q27 -19 41 -49q44 -29 72 -56q64 0 113 24v57q-55 106 -55 211q0 68 23 135v18q0 125 64 215v13 q0 142 81 229q37 181 177 266q67 96 145 137l16 48l24 16l129 129q11 50 11 95q0 70 -27 130q-63 42 -125 42q-55 0 -109 -34v-40l-48 -16q-29 -63 -32 -121l-33 -16q-16 -60 -72 -88q-19 -48 -48 -81q-11 -79 -73 -113q-16 -48 -48 -80q-222 62 -297 522q-68 28 -104 81 q-39 0 -65 8q-134 -67 -134 -158q0 -43 30 -91z" />
<glyph unicode="z" horiz-adv-x="1130" d="M4 1026q1 -66 13 -112q12 -146 127 -146q21 0 45 5q72 33 137 33q94 0 173 -70q107 -47 107 -164q0 -11 -1 -23l-40 -59q-25 4 -47 4q-67 0 -105 -41q-44 9 -72 22l-20 7q-13 -1 -25 -1q-31 0 -54 9l-40 -8q-37 -84 -92 -126v-21q0 -47 -7 -84q33 -52 40 -111 q180 -135 359 -135l169 30h4q103 0 174 53l46 7h26q41 8 74 8q10 0 19 -1q10 9 19 8l20 7h20q48 23 86 23l46 15l7 14l52 -7q30 9 57 9t49 -9q11 31 33 52v52l-26 8q-49 18 -80 37q-12 -2 -24 -2q-36 0 -61 24q-7 -8 -14 -7q-100 -21 -165 -22q-64 -24 -114 -23h-18 q-27 -10 -46 -22q-38 0 -66 -8h-20h-26l-13 -7l-13 7q-31 -11 -57.5 -11t-48.5 11l-159 -37l24 60q301 137 301 376q0 13 -1 26v60l-7 52q-240 271 -527 290q-44 54 -99 60q-48 -41 -99 -52q-1 -54 -40 -60z" />
<glyph unicode="|" horiz-adv-x="906" d="M120 -319q142 -59 214 73q7 83 -1 143l40 120q-73 188 -9 350q-32 211 41 380q-31 279 68 500q6 197 81 359q-2 208 -141 246q-96 -53 -144 -118q7 -119 46 -203l-17 -93l-5 -78q12 -79 -26 -133l2 -25l4 -39l-23 -28q10 -150 -13 -261q-8 -42 -2 -117q-34 -152 -26 -262 l-23 -29l-10 -27q18 -92 2 -155q-13 -54 -3 -104q-88 -267 -55 -499z" />
<glyph unicode="~" horiz-adv-x="1721" d="M-671 -923v2802h1716v-2802h-1716zM409 -849q17 -19 36 -14v-5l12 8q14 0 22 -3h17l2 3q20 0 31 2h6l2 -2q26 -1 45 -6q8 5 17 3q25 -12 47 -12q14 -19 36 -25h6q14 11 28 17q8 14 0 30q-6 3 -8 9q-14 3 -20 14q-22 8 -33 25q-31 28 14 28l8 -3q3 3 6 3h16q9 2 17 2 q3 -5 8 -5l6 2l25 -5l11 8q20 -3 34 3q3 16 5 28q-11 2 -19 5q-20 -8 -36 -2q-17 0 -28 2q-22 -5 -39 1q-20 -3 -34 5l-11 -8q-75 -8 -34 -92h-8q-14 0 -25 6l-8 -3h-9h-11h-5h-6h-11h-6q-16 3 -28 0h-5h-6h-5h-14l-34 1q-14 -9 -14 -20zM430 -621q5 -8 5 -16q14 -6 22 -17 q11 3 23 3l2 -3h28q17 -3 28 0q22 -26 53 -31q11 3 14 8q11 3 19 8h20l19 -5h31q25 -14 48 -9q13 -11 27 -11q3 3 6 3q8 11 14 16q-6 23 -25 34q-14 -3 -25 0l-3 3h-8l-36 5l-14 6h-6l-20 -3l-19 3q-8 14 -5 25v6v8l-3 3q0 8 -3 14v5l-5 31l-17 8q-8 -2 -14 -8 q11 -42 -6 -75q-8 -3 -14 -8l-11 -3h-6q-11 6 -22 8q-33 9 -53 20q-33 0 -44 -28zM449 231q14 -6 20 -14l13 -8q14 -3 23 -9l3 -8q11 -3 19 -6l3 -5l8 -3q11 -6 17 -11q11 -6 17 -6q19 -20 41 -22l9 -9l19 -19h6l5 -6l6 -3l16 -3v-5q14 -3 20 -6q5 -8 11 -11l6 -3 q16 -11 33 -14l3 -5q30 -3 47 16q0 31 -30 42l-6 8q-25 9 -31 -11h-8q-17 9 -31 20q-41 11 -66 42h-11l-6 8q-14 3 -17 12h-5q-9 5 -11 8l-6 3l-3 5q-2 0 -2 3q-28 11 -39 34l-9 2l-2 14q-14 3 -23 14q-42 1 -39 -36q3 -5 0 -8zM452 1820l13 -22h3q25 -3 42 0l8 -8 q20 2 34 -6q25 0 44 -9q14 -3 25 -8h34q11 -9 22 -9q9 -2 17 0l17 -5q11 -9 19 -9l6 -3q22 0 39 -8l33 3l11 8q6 11 11 17l-2 8h-6h-5h-9h-5h-6h-6h-36l-11 6l-8 5q-14 0 -22 9h-6h-6q-11 3 -16 6q-9 0 -14 -3q-17 8 -31 8h-5q-17 11 -34 11l-8 3l-9 3l-2 3q-14 0 -25 3h-6 l-3 3l-11 2l-28 3q-8 9 -17 9q-16 -3 -27 0q-12 -9 -14 -20zM455 -415q9 -11 14 -22h6q19 -9 36 -11v-3q14 -3 22 -3l14 -3q6 -5 11 -3l3 -5q-3 -23 3 -39q19 0 30 -9q17 3 25 3q14 25 37 31q25 -9 44 -6q53 -28 67 14q-5 8 -8 13q-8 6 -14 6q-45 -5 -81 9q-19 0 -33 8l-6 3 v6q-8 22 -11 41q-11 0 -14 9q-16 -17 -16 -36l-6 -9q-34 3 -56 17q-22 0 -39 11q-11 0 -19 3q-11 -11 -9 -25zM461 348q2 -3 2 -6q6 -5 9 -11q14 -8 22 -22h8l11 -6q12 -11 23 -14l2 -3q23 -11 37 -25l16 -3v-5q42 -11 70 -39q28 -3 42 -23q19 -3 30 -19h9l5 -3q20 -9 34 -9 q25 -19 52 -19q14 11 20 22l-17 11q-16 -5 -28 6q-19 -3 -27 11h-3h-14l-6 8l-11 3l-5 3q-6 3 -3 6q-20 8 -28 19l-8 6l-9 3l-8 5h-6q-19 11 -30 23l-6 2q-30 12 -53 31q-13 6 -25 14q-5 8 -8 17h-5h-9v5q-14 6 -19 14q-17 6 -25 14q-20 12 -36 6l-1 -11zM503 -245 q6 -6 3 -14q17 -20 19 -36q17 -6 25 -20l20 -6l3 -2q22 -9 36 -20l22 -3q11 -19 31 -22q14 3 28 3q28 13 55 10l9 3q28 -5 47 3q70 -9 67 41q-19 9 -28 23h-5q-9 -6 -20 -6q-25 -8 -44 -5q-6 -6 -14 -8h-3h-22q-14 -6 -25 -3q-14 0 -23 -6q-61 3 -103 29h-8q-14 16 -20 36 q6 44 40 64q11 16 33 8q20 0 36 -11q14 -3 17 -17q22 -3 25 -20q22 -11 19 -30l25 -6q9 11 20 17v3v-3v3q-11 16 -14 33l-11 3l-3 5q-19 17 -30 34h-14q-8 8 -14 17q-56 22 -106 11l-11 -19h-11l-3 -9q-42 -33 -48 -80zM539 439l14 -2q14 -25 42 -17q14 14 28 22q-6 14 0 25 q-6 25 11 36l3 -5q2 -12 5 -20q23 -14 31 -36q16 -14 19 -34h9q19 -14 41 -5l3 2h3q11 17 22 25q0 17 6 31l-3 6v5v31v8l-2 6v8q-3 3 0 6v2v23q-9 11 -6 19q-11 8 -22 6l-3 -20q8 -36 -8 -64q-1 -16 -6 -28h-11l-3 3l-14 17q-11 33 -33 53q-25 42 -70 28q-3 -14 -11 -19 q-3 -45 -31 -73q-3 -22 -14 -39zM552 1132q3 -2 3 -8q14 -11 22 -28q17 -8 23 -22l5 -3l3 -5l6 -1l2 -2q3 0 6 -3l3 -3l5 -3h6q19 -14 33 -22h50q9 -3 14 0l9 -6q8 3 14 0h5q14 3 22 0h9l5 3h6q11 2 19 2q12 3 23 0q17 3 28 3q22 11 44 11l3 8q11 0 20 3q14 14 33 17l3 5v6 q6 8 6 16q-3 3 -3 6q-14 11 -22 22l-12 3l-8 -8h-8h-6h-5h-6h-6h-41q-3 -3 -6 -3h-8q-9 0 -14 -2q-17 -6 -34 -3l-22 22l-6 6l-16 14l-3 3q-6 8 -8 14q-9 5 -11 11q-17 8 -23 19l-8 9h-8l-6 5l-5 3q-12 6 -20 14q-14 0 -22 9q-11 0 -20 -3h-14q-5 -6 -14 -8q-8 -12 -14 -17 q-14 -22 -25 -33v-6l3 -6q-8 -19 -9 -39zM557 -48q5 -8 5 -16q50 -31 90 2q-6 25 -34 28v3l-5 3v2q-14 6 -23 9q-30 0 -33 -31zM579 754q17 -22 17 -45q8 -11 11 -22q19 -14 25 -34q11 -8 14 -16h19q20 -12 39 -12l3 9q61 5 56 80v6q-6 14 -3 25q-5 8 -5 19q-6 9 -6 20 q-11 14 -14 31q-5 5 -8 14q-14 8 -19 22l5 -3l6 3l5 -6h6q31 8 53 0h14q14 8 28 8q33 -5 58 3l17 3q75 -12 75 35l-11 9q-17 -3 -30 14h-3q-25 -14 -50 -14q-14 0 -26 -5l-5 5q-53 -16 -100 3h-17q-25 23 -50 -11q-14 1 -25 1q-14 39 16 58q28 33 70 16q3 -16 20 -19 q2 -17 19 -20q42 -17 23 31q-6 8 -6 14l-3 3q-22 11 -36 25h-6l-5 5h-3q-25 6 -39 12q-67 -14 -92 -70q-34 -25 -20 -69q14 -6 20 -22q-14 -12 -25 -17l-1 -8l-5 -3v-14l-6 -34q6 -8 6 -16zM600 1146q0 11 8 17q9 36 48 28q5 -3 11 -9q19 -3 30 -19q26 -9 34 -31 q17 -9 22 -17q0 -11 -3 -17q-16 -2 -30 1q-90 -45 -120 47zM624 1608q2 -8 2 -16l12 -6v-6l11 -11h5q17 -28 42 -39l19 -19q-75 14 -89 -20l6 -2q5 -12 14 -20h8l5 -3h20l6 -3q13 0 25 -3q30 6 53 -8h19l3 3q19 8 31 22q-6 11 -9 22q-11 8 -16 17q-11 5 -17 14l-6 3 q-8 5 -16 8l-11 8q-9 6 -12 12q-27 8 -38 22q-12 19 -6 33q45 20 89 3q23 0 39 -6q9 11 11 22q-8 6 -11 12h-5q-6 2 -11 2q-145 62 -173 -41zM629 773q-2 59 26 78q30 -8 41 -36q25 -12 17 -50q16 -42 -6 -76q-19 -13 -28 39h-5q-14 -5 -28 -5q-17 25 -17 50zM693 -68 q11 -28 34 -28l22 9q31 39 -8 50q-39 6 -48 -31zM706 1305q23 -12 31 -31h11l3 3q25 -1 44 13q3 48 -33 51q-39 -3 -56 -36zM786 1065q3 5 12 8h19l11 6q9 0 14 2q20 0 34 3q-12 -11 -26 -11q-19 -11 -39 -5q-14 -6 -25 -3z" />
<glyph unicode="&#xa8;" horiz-adv-x="877" d="M119 1344q128 -20 250 35v60l-36 12l-36 12q-87 75 -166 95q-136 -115 -12 -214zM773 1534q-181 -234 72 -238q157 168 -72 238z" />
<glyph unicode="&#xa9;" horiz-adv-x="1509" d="M3 736q0 197 101.5 378.5t282.5 279t371 97.5t371 -97.5t282 -279t101 -378.5q0 -195 -99.5 -375t-279 -279.5t-375.5 -99.5t-375.5 99.5t-279.5 279.5t-100 375zM128 736q0 -163 83.5 -312.5t233.5 -233t313 -83.5t313 83.5t233 233t83 312.5q0 164 -84.5 315.5 t-235.5 233t-309 81.5q-159 0 -309.5 -81.5t-235.5 -233t-85 -315.5zM363 734q0 132 50 229.5t142.5 147t211.5 49.5q133 0 221 -63.5t120 -172.5l-119 -29q-30 74 -88.5 113.5t-137.5 39.5q-115 0 -189.5 -82t-74.5 -235t70.5 -231.5t182.5 -78.5q90 0 158 52t90 141 l123 -36q-30 -125 -127.5 -199.5t-236.5 -74.5q-176 0 -286 114t-110 316z" />
<glyph unicode="&#xad;" horiz-adv-x="1068" d="M-38 634q-77 -118 20 -225q105 -11 137 22q45 -22 75 -19l28 5l56 12l21 4l17 -10l35 7l38 -6l28 5l21 5l31 -8l21 4l21 5l21 4l31 -8l21 5l24 -9l21 4l38 -24q59 -12 107 -27l71 -2q37 135 -16 182l-55 6l-54 22q-141 1 -247 33q-38 -20 -70 -14l-19 -18l-23 9l-24 9 q-48 -21 -85 -17l-16 11l-50 -10q-46 13 -82 11q-79 62 -142 32z" />
<glyph unicode="&#xae;" horiz-adv-x="1509" d="M3 736q0 197 101.5 378.5t282.5 279t371 97.5t371 -97.5t282 -279t101 -378.5q0 -195 -99.5 -375t-279 -279.5t-375.5 -99.5t-375.5 99.5t-279.5 279.5t-100 375zM128 736q0 -163 83.5 -312.5t233.5 -233t313 -83.5t313 83.5t233 233t83 312.5q0 164 -84.5 315.5 t-235.5 233t-309 81.5q-159 0 -309.5 -81.5t-235.5 -233t-85 -315.5zM427 319v812h279q143 0 207 -22.5t102 -78.5t38 -119q0 -89 -63.5 -155t-168.5 -74q43 -18 69 -43q49 -48 120 -161l99 -159h-160l-72 128q-85 151 -137 189q-36 28 -105 28h-77v-345h-131zM558 776h159 q114 0 155.5 34t41.5 90q0 36 -20 64.5t-55.5 42.5t-131.5 14h-149v-245z" />
<glyph unicode="&#xb0;" horiz-adv-x="285" d="M-318 1664q-21 -18 15 -68q5 -7 12 -11q6 -9 15 -13h12q1 9 8 12q15 1 25 -2l5 5h4q10 2 18 1q20 10 36 12l3 5l3 3q15 5 24 15q22 9 33 24l8 1l6 8q7 19 19 30q1 19 -7 34q1 19 -11 33q-16 6 -25 12q-17 0 -29 7q-11 -2 -18 3q-21 -8 -40 -6q-28 -18 -57 -19l-9 -8 q-12 -5 -20 -10q-5 -24 -21 -35v-13q-8 -8 -9 -20zM-254 1670q0 4 3 8v5q6 4 8 13q3 2 8 4l3 3q11 0 22 7q8 -1 16 3q3 -2 7 -1q4 -3 11 -3q3 -3 10 -5q4 -5 4 -13q3 -5 3 -13q-5 -4 -8 -11l-2 -3l-3 -1q-5 -6 -13 -9q-3 -4 -9 -6l-1 -1l-1 -2q-7 -1 -14 -4q-3 0 -7 -1h-2 l-2 -2q-4 1 -10 1q-2 -1 -3 -5h-4q-4 2 -6 5q-3 2 -5 4q-14 20 -5 27z" />
<glyph unicode="&#xb4;" horiz-adv-x="802" d="M446 1493l13 -100q157 -147 478 188q248 71 352 264l-63 13l-189 -63q-76 -64 -151 -88q-77 -56 -138 -75l-25 -13l-151 -50l-76 -25q-14 -43 -50 -51z" />
<glyph unicode="&#xc7;" horiz-adv-x="916" d="M59 826q-162 -666 283 -828q214 -107 187 -53q14 -39 244 -487q-819 480 -596 85q402 -248 706 -241q69 163 43 348q-26 86 -109 196q-115 172 -38 128l32 32l53 58q189 103 349 130l22 109q-78 90 -174 131q-617 -387 -784.5 -78t180 763t952.5 157l164 -45 q137 230 -186 466h-196q-231 -114 -435 -109l-44 -65q-33 -25 -65 -22l-66 -44q-140 -129 -261 -261q-198 -154 -261 -370z" />
<glyph unicode="&#xc9;" horiz-adv-x="1320" d="M-20 411q12 -29 11 -62l-7 -15l7 -148q118 -146 279 -147l25 -39l30 8q46 10 85 8q70 33 138 38q7 14 15 16h54q46 41 99 46l21 39q39 10 69 8q57 46 122 46l14 31q67 41 122 55q46 85 126 116q23 47 51 70l-3 62l-25 23q-41 -20 -76 -15q-134 -148 -310 -171 q-89 -94 -205 -85l-7 -31q-239 -78 -382 54q-59 229 -13 427q36 5 62 0l122 31l47 -16l31 8h101l24 -8h46h23h24q92 -16 156 -15l14 15q47 17 85 16l7 15l15 8h23q41 46 90 62l-9 39l-24 15q-85 -3 -149 24q-89 1 -157 38q-152 -32 -266 47q-98 20 -159 85l42 86q52 1 85 15 q39 16 60 31l63 -8q308 70 582 -7l22 15q126 -29 218 -15q40 35 35 85q-78 69 -152 93q-81 1 -134 39q-72 -7 -124 8l-16 7q-82 -7 -149 24q-77 -1 -141 23q-73 -12 -132 15q-146 -8 -258 47h-24l-94 31l-7 -23q-39 -66 -88 -101q-8 -49 -35 -78l18 -46q24 -76 52 -117 l-21 -38q1 -133 -75 -218l3 -54q8 -25 11 -70q-44 -85 -31 -170q-30 -73 -16 -132q-15 -39 -36 -62l16 -24l-14 -15zM316 1473l13 -100q157 -147 478 188q248 71 352 264l-63 13l-189 -63q-76 -64 -151 -88q-77 -56 -138 -75l-25 -13l-151 -50l-76 -25q-14 -43 -50 -51z" />
<glyph unicode="&#xe0;" d="M0 334q14 -50 8 -106q18 -32 7 -61q34 -27 46 -62q50 -37 76 -87h153l45 -18l16 18l175 79q8 15 15 17q26 36 54 53l76 79l23 26q41 38 61 70l15 18l15 9q39 49 69 70q13 29 30 44q-20 -450 305 -430q245 131 -31 190q-88 77 -98 255q16 191 61 248q-35 106 -11 114 l-12 79l-38 9l-38 -9q-57 14 -99 53q-46 -21 -92 -18q-84 48 -160 35q-32 24 -69 18q-7 -10 -15 -9l-130 -44l-22 -8q-35 -39 -69 -44q-35 -43 -76 -53q-29 -40 -61 -53l-8 -35q-38 -52 -76 -79q-7 -52 -38 -79l7 -26l-7 -26q-25 -46 -61 -62q-3 -87 -46 -149v-26zM216 1847 l8 -50l99 -121q69 -38 107 -86q63 -41 94 -80l17 -15l79 -97l40 -49q35 2 51 -22l70 38q64 156 -272 298q-122 162 -293 184zM282 263q-110 164 31 281q47 115 144 132q42 58 168 61q125 3 176 -114l-31 -9q-36 -86 -99 -122q-35 -94 -122 -97l-23 -61q-38 -2 -61 -9 q-90 -67 -183 -62z" />
<glyph unicode="&#xe1;" d="M0 334q14 -50 8 -106q18 -32 7 -61q34 -27 46 -62q50 -37 76 -87h153l45 -18l16 18l175 79q8 15 15 17q26 36 54 53l76 79l23 26q41 38 61 70l15 18l15 9q39 49 69 70q13 29 30 44q-20 -450 305 -430q245 131 -31 190q-88 77 -98 255q16 191 61 248q-35 106 -11 114 l-12 79l-38 9l-38 -9q-57 14 -99 53q-46 -21 -92 -18q-84 48 -160 35q-32 24 -69 18q-7 -10 -15 -9l-130 -44l-22 -8q-35 -39 -69 -44q-35 -43 -76 -53q-29 -40 -61 -53l-8 -35q-38 -52 -76 -79q-7 -52 -38 -79l7 -26l-7 -26q-25 -46 -61 -62q-3 -87 -46 -149v-26zM282 263 q-110 164 31 281q47 115 144 132q42 58 168 61q125 3 176 -114l-31 -9q-36 -86 -99 -122q-35 -94 -122 -97l-23 -61q-38 -2 -61 -9q-90 -67 -183 -62zM446 1493l13 -100q157 -147 478 188q248 71 352 264l-63 13l-189 -63q-76 -64 -151 -88q-77 -56 -138 -75l-25 -13 l-151 -50l-76 -25q-14 -43 -50 -51z" />
<glyph unicode="&#xe2;" d="M0 334q14 -50 8 -106q18 -32 7 -61q34 -27 46 -62q50 -37 76 -87h153l45 -18l16 18l175 79q8 15 15 17q26 36 54 53l76 79l23 26q41 38 61 70l15 18l15 9q39 49 69 70q13 29 30 44q-20 -450 305 -430q245 131 -31 190q-88 77 -98 255q16 191 61 248q-35 106 -11 114 l-12 79l-38 9l-38 -9q-57 14 -99 53q-46 -21 -92 -18q-84 48 -160 35q-32 24 -69 18q-7 -10 -15 -9l-130 -44l-22 -8q-35 -39 -69 -44q-35 -43 -76 -53q-29 -40 -61 -53l-8 -35q-38 -52 -76 -79q-7 -52 -38 -79l7 -26l-7 -26q-25 -46 -61 -62q-3 -87 -46 -149v-26zM282 263 q-110 164 31 281q47 115 144 132q42 58 168 61q125 3 176 -114l-31 -9q-36 -86 -99 -122q-35 -94 -122 -97l-23 -61q-38 -2 -61 -9q-90 -67 -183 -62zM289 1151l75 125l50 100l73 84l40 79l62 88l101 62l75 -12l57 -126l93 -112l21 -55l42 -83l25 -63l50 -87l-25 -63l-88 25 l-88 50l-50 63l-37 138l-50 75l-101 -25l-62 -100l-38 -76l-75 -75l-50 -25z" />
<glyph unicode="&#xe4;" d="M0 334q14 -50 8 -106q18 -32 7 -61q34 -27 46 -62q50 -37 76 -87h153l45 -18l16 18l175 79q8 15 15 17q26 36 54 53l76 79l23 26q41 38 61 70l15 18l15 9q39 49 69 70q13 29 30 44q-20 -450 305 -430q245 131 -31 190q-88 77 -98 255q16 191 61 248q-35 106 -11 114 l-12 79l-38 9l-38 -9q-57 14 -99 53q-46 -21 -92 -18q-84 48 -160 35q-32 24 -69 18q-7 -10 -15 -9l-130 -44l-22 -8q-35 -39 -69 -44q-35 -43 -76 -53q-29 -40 -61 -53l-8 -35q-38 -52 -76 -79q-7 -52 -38 -79l7 -26l-7 -26q-25 -46 -61 -62q-3 -87 -46 -149v-26zM282 263 q-110 164 31 281q47 115 144 132q42 58 168 61q125 3 176 -114l-31 -9q-36 -86 -99 -122q-35 -94 -122 -97l-23 -61q-38 -2 -61 -9q-90 -67 -183 -62zM343 1166q128 -20 250 35v60l-36 12l-36 12q-87 75 -166 95q-136 -115 -12 -214zM997 1356q-181 -234 72 -238 q157 168 -72 238z" />
<glyph unicode="&#xe5;" d="M0 334q14 -50 8 -106q18 -32 7 -61q34 -27 46 -62q50 -37 76 -87h153l45 -18l16 18l175 79q8 15 15 17q26 36 54 53l76 79l23 26q41 38 61 70l15 18l15 9q39 49 69 70q13 29 30 44q-20 -450 305 -430q245 131 -31 190q-88 77 -98 255q16 191 61 248q-35 106 -11 114 l-12 79l-38 9l-38 -9q-57 14 -99 53q-46 -21 -92 -18q-84 48 -160 35q-32 24 -69 18q-7 -10 -15 -9l-130 -44l-22 -8q-35 -39 -69 -44q-35 -43 -76 -53q-29 -40 -61 -53l-8 -35q-38 -52 -76 -79q-7 -52 -38 -79l7 -26l-7 -26q-25 -46 -61 -62q-3 -87 -46 -149v-26zM282 263 q-110 164 31 281q47 115 144 132q42 58 168 61q125 3 176 -114l-31 -9q-36 -86 -99 -122q-35 -94 -122 -97l-23 -61q-38 -2 -61 -9q-90 -67 -183 -62zM615 1193q-31 -27 22 -99q6 -10 17 -15q8 -13 21 -19h17q2 12 11 17q22 2 37 -2l6 7h7q14 3 25 2q29 14 52 17l4 6l4 4 q22 8 35 22q30 13 47 34l11 2l8 11q11 27 28 43q1 28 -11 49q2 27 -15 47q-23 9 -36 17q-24 1 -41 11q-15 -3 -26 4q-29 -12 -57 -9q-41 -26 -82 -27l-13 -11q-17 -7 -28 -15q-8 -35 -30 -49v-20q-12 -12 -13 -27zM717 1198q1 6 6 11v8q9 6 12 20q5 4 12 7l5 4q17 1 34 11 q12 -1 24 4q4 -3 10 -2q7 -4 17 -4q6 -4 15 -7q7 -8 7 -20q4 -8 4 -20q-7 -6 -12 -18l-3 -4l-4 -1q-7 -9 -20 -14q-5 -6 -14 -9l-2 -2l-2 -2q-9 -1 -21 -7q-5 0 -11 -1h-2l-3 -3q-6 2 -15 1q-4 -2 -5 -7h-7q-5 2 -9 8q-4 2 -7 6q-21 30 -9 41z" />
<glyph unicode="&#xe7;" horiz-adv-x="880" d="M11 -203q26 -379 453 -245q-2 90 24 159l-24 37q-21 43 -25 85q-64 80 -98 147l13 110q273 64 256 184q-68 16 -110 37q-336 -142 -379 85q166 406 538 367l37 -73q71 2 122 12q68 297 -220 306q-125 -58 -232 -61q-704 -651 -220 -869q-1 -189 110 -306q1 -75 -196 61z " />
<glyph unicode="&#xe8;" horiz-adv-x="913" d="M0 420q10 -36 13 -63l12 -100l6 -19l19 -12l13 -44q40 -39 56 -75l19 -7l12 -18l32 -7l19 -6l12 -13h19l13 -6l119 -50l25 6q29 6 50 0l19 7h37l51 6q71 14 125 12l13 25h18q36 18 76 19q32 37 81 32q16 29 44 37l-6 57q-70 -7 -119 6q-48 -17 -88 -6q-210 -45 -395 18 q-17 32 -44 44q38 52 81 76l25 25l32 19l31 12q75 84 157 119l6 19l19 6q52 61 113 88q19 54 69 69l12 75q72 91 0 176q-47 33 -94 37l-12 7q-61 -1 -101 19q-6 -8 -12 -7q-148 -11 -257 -75l-19 -38l-50 -12q-48 -34 -88 -44q-4 -12 -13 -13q-12 -32 -25 -50 q-90 -105 -106 -213q-5 -22 -19 -38v-25l13 -31zM216 1847l8 -50l99 -121q69 -38 107 -86q63 -41 94 -80l17 -15l79 -97l40 -49q35 2 51 -22l70 38q64 156 -272 298q-122 162 -293 184zM251 564q9 84 81 119q62 89 163 88q23 27 51 38l56 -13q-21 -101 -113 -131 q-65 -96 -169 -69q-28 -38 -69 -32z" />
<glyph unicode="&#xe9;" horiz-adv-x="878" d="M0 420q10 -36 13 -63l12 -100l6 -19l19 -12l13 -44q40 -39 56 -75l19 -7l12 -18l32 -7l19 -6l12 -13h19l13 -6l119 -50l25 6q29 6 50 0l19 7h37l51 6q71 14 125 12l13 25h18q36 18 76 19q32 37 81 32q16 29 44 37l-6 57q-70 -7 -119 6q-48 -17 -88 -6q-210 -45 -395 18 q-17 32 -44 44q38 52 81 76l25 25l32 19l31 12q75 84 157 119l6 19l19 6q52 61 113 88q19 54 69 69l12 75q72 91 0 176q-47 33 -94 37l-12 7q-61 -1 -101 19q-6 -8 -12 -7q-148 -11 -257 -75l-19 -38l-50 -12q-48 -34 -88 -44q-4 -12 -13 -13q-12 -32 -25 -50 q-90 -105 -106 -213q-5 -22 -19 -38v-25l13 -31zM237 1316l13 -100q157 -147 478 188q248 71 352 264l-63 13l-189 -63q-76 -64 -151 -88q-77 -56 -138 -75l-25 -13l-151 -50l-76 -25q-14 -43 -50 -51zM251 564q9 84 81 119q62 89 163 88q23 27 51 38l56 -13 q-21 -101 -113 -131q-65 -96 -169 -69q-28 -38 -69 -32z" />
<glyph unicode="&#xea;" horiz-adv-x="937" d="M0 420q10 -36 13 -63l12 -100l6 -19l19 -12l13 -44q40 -39 56 -75l19 -7l12 -18l32 -7l19 -6l12 -13h19l13 -6l119 -50l25 6q29 6 50 0l19 7h37l51 6q71 14 125 12l13 25h18q36 18 76 19q32 37 81 32q16 29 44 37l-6 57q-70 -7 -119 6q-48 -17 -88 -6q-210 -45 -395 18 q-17 32 -44 44q38 52 81 76l25 25l32 19l31 12q75 84 157 119l6 19l19 6q52 61 113 88q19 54 69 69l12 75q72 91 0 176q-47 33 -94 37l-12 7q-61 -1 -101 19q-6 -8 -12 -7q-148 -11 -257 -75l-19 -38l-50 -12q-48 -34 -88 -44q-4 -12 -13 -13q-12 -32 -25 -50 q-90 -105 -106 -213q-5 -22 -19 -38v-25l13 -31zM88 1206l75 125l50 100l92 79l21 84l62 88l101 62l75 -12l-13 -150l163 -88v-50l63 -88l25 -63l50 -87l-25 -63l-88 25l-88 50l-50 63l-37 138l-50 75l-101 -25l-62 -100l-38 -76l-75 -75l-50 -25zM251 564q9 84 81 119 q62 89 163 88q23 27 51 38l56 -13q-21 -101 -113 -131q-65 -96 -169 -69q-28 -38 -69 -32z" />
<glyph unicode="&#xeb;" horiz-adv-x="989" d="M0 420q10 -36 13 -63l12 -100l6 -19l19 -12l13 -44q40 -39 56 -75l19 -7l12 -18l32 -7l19 -6l12 -13h19l13 -6l119 -50l25 6q29 6 50 0l19 7h37l51 6q71 14 125 12l13 25h18q36 18 76 19q32 37 81 32q16 29 44 37l-6 57q-70 -7 -119 6q-48 -17 -88 -6q-210 -45 -395 18 q-17 32 -44 44q38 52 81 76l25 25l32 19l31 12q75 84 157 119l6 19l19 6q52 61 113 88q19 54 69 69l12 75q72 91 0 176q-47 33 -94 37l-12 7q-61 -1 -101 19q-6 -8 -12 -7q-148 -11 -257 -75l-19 -38l-50 -12q-48 -34 -88 -44q-4 -12 -13 -13q-12 -32 -25 -50 q-90 -105 -106 -213q-5 -22 -19 -38v-25l13 -31zM119 1344q128 -20 250 35v60l-36 12l-36 12q-87 75 -166 95q-136 -115 -12 -214zM251 564q9 84 81 119q62 89 163 88q23 27 51 38l56 -13q-21 -101 -113 -131q-65 -96 -169 -69q-28 -38 -69 -32zM773 1534q-181 -234 72 -238 q157 168 -72 238z" />
<glyph unicode="&#xec;" horiz-adv-x="590" d="M-47 1313l8 -50l99 -121q69 -38 107 -86q63 -41 94 -80l17 -15l79 -97l40 -49q35 2 51 -22l70 38q64 156 -272 298q-122 162 -293 184zM36 286q-30 -401 185 -257l6 20q-26 62 -26 112q14 49 33 79q9 43 33 73q56 210 116 275q-11 152 -159 172l-39 -33q-23 -39 -46 -60 v-26q-33 -118 -63 -308q-27 -21 -40 -47z" />
<glyph unicode="&#xed;" horiz-adv-x="522" d="M36 286q-30 -401 185 -257l6 20q-26 62 -26 112q14 49 33 79q9 43 33 73q56 210 116 275q-11 152 -159 172l-39 -33q-23 -39 -46 -60v-26q-33 -118 -63 -308q-27 -21 -40 -47zM243 1069l8 -62q98 -92 300 118q155 44 220 165l-39 8l-119 -39q-47 -41 -94 -56 q-49 -35 -87 -47l-16 -8l-94 -31l-48 -16q-8 -27 -31 -32z" />
<glyph unicode="&#xee;" horiz-adv-x="590" d="M-21 942l75 125l50 100l92 79l21 84l62 88l101 62l75 -12l-13 -150l163 -88v-50l63 -88l25 -63l50 -87l-25 -63l-88 25l-88 50l-50 63l-37 138l-50 75l-101 -25l-62 -100l-38 -76l-75 -75l-50 -25zM36 286q-30 -401 185 -257l6 20q-26 62 -26 112q14 49 33 79q9 43 33 73 q56 210 116 275q-11 152 -159 172l-39 -33q-23 -39 -46 -60v-26q-33 -118 -63 -308q-27 -21 -40 -47z" />
<glyph unicode="&#xef;" horiz-adv-x="835" d="M36 286q-30 -401 185 -257l6 20q-26 62 -26 112q14 49 33 79q9 43 33 73q56 210 116 275q-11 152 -159 172l-39 -33q-23 -39 -46 -60v-26q-33 -118 -63 -308q-27 -21 -40 -47zM80 1137q128 -20 250 35v60l-36 12l-36 12q-87 75 -166 95q-136 -115 -12 -214zM734 1327 q-181 -234 72 -238q157 168 -72 238z" />
<glyph unicode="&#xf2;" horiz-adv-x="1260" d="M53 436q-107 -91 75 -343q23 -36 59 -52q30 -47 75 -67h59q6 43 38 60q74 7 126 -8l23 23h22q50 11 89 7q100 49 179 60l15 22l15 15q75 28 119 75q107 44 164 119l37 7l30 38q36 94 97 149q3 99 -37 171q6 96 -52 164q-81 31 -127 60q-84 3 -142 37q-53 -10 -89 15 q-103 -42 -201 -30q-139 -91 -283 -97l-45 -37q-59 -24 -97 -52q-28 -121 -104 -172v-67q-43 -42 -45 -97zM216 1847l8 -50l99 -121q69 -38 107 -86q63 -41 94 -80l17 -15l79 -97l40 -49q35 2 51 -22l70 38q64 156 -272 298q-122 162 -293 184zM283 484q39 9 44 44h43 q117 -105 246 36l-29 36l7 15q9 82 22 130l87 29q168 18 268 -80q118 -36 108 -152q-89 -107 -210 -116q-22 -54 -79 -36l-29 -50h-65q-140 -94 -326 -58l-14 21l-29 -7q-50 95 -44 188z" />
<glyph unicode="&#xf3;" horiz-adv-x="1260" d="M53 436q-107 -91 75 -343q23 -36 59 -52q30 -47 75 -67h59q6 43 38 60q74 7 126 -8l23 23h22q50 11 89 7q100 49 179 60l15 22l15 15q75 28 119 75q107 44 164 119l37 7l30 38q36 94 97 149q3 99 -37 171q6 96 -52 164q-81 31 -127 60q-84 3 -142 37q-53 -10 -89 15 q-103 -42 -201 -30q-139 -91 -283 -97l-45 -37q-59 -24 -97 -52q-28 -121 -104 -172v-67q-43 -42 -45 -97zM237 1316l13 -100q157 -147 478 188q248 71 352 264l-63 13l-189 -63q-76 -64 -151 -88q-77 -56 -138 -75l-25 -13l-151 -50l-76 -25q-14 -43 -50 -51zM283 484 q39 9 44 44h43q117 -105 246 36l-29 36l7 15q9 82 22 130l87 29q168 18 268 -80q118 -36 108 -152q-89 -107 -210 -116q-22 -54 -79 -36l-29 -50h-65q-140 -94 -326 -58l-14 21l-29 -7q-50 95 -44 188z" />
<glyph unicode="&#xf4;" horiz-adv-x="1260" d="M53 436q-107 -91 75 -343q23 -36 59 -52q30 -47 75 -67h59q6 43 38 60q74 7 126 -8l23 23h22q50 11 89 7q100 49 179 60l15 22l15 15q75 28 119 75q107 44 164 119l37 7l30 38q36 94 97 149q3 99 -37 171q6 96 -52 164q-81 31 -127 60q-84 3 -142 37q-53 -10 -89 15 q-103 -42 -201 -30q-139 -91 -283 -97l-45 -37q-59 -24 -97 -52q-28 -121 -104 -172v-67q-43 -42 -45 -97zM283 484q39 9 44 44h43q117 -105 246 36l-29 36l7 15q9 82 22 130l87 29q168 18 268 -80q118 -36 108 -152q-89 -107 -210 -116q-22 -54 -79 -36l-29 -50h-65 q-140 -94 -326 -58l-14 21l-29 -7q-50 95 -44 188zM332 1138l75 125l50 100l73 84l40 79l62 88l101 62l75 -12l57 -126l93 -112l21 -55l42 -83l25 -63l50 -87l-25 -63l-88 25l-88 50l-50 63l-37 138l-50 75l-101 -25l-62 -100l-38 -76l-75 -75l-50 -25z" />
<glyph unicode="&#xf6;" horiz-adv-x="1260" d="M53 436q-107 -91 75 -343q23 -36 59 -52q30 -47 75 -67h59q6 43 38 60q74 7 126 -8l23 23h22q50 11 89 7q100 49 179 60l15 22l15 15q75 28 119 75q107 44 164 119l37 7l30 38q36 94 97 149q3 99 -37 171q6 96 -52 164q-81 31 -127 60q-84 3 -142 37q-53 -10 -89 15 q-103 -42 -201 -30q-139 -91 -283 -97l-45 -37q-59 -24 -97 -52q-28 -121 -104 -172v-67q-43 -42 -45 -97zM283 484q39 9 44 44h43q117 -105 246 36l-29 36l7 15q9 82 22 130l87 29q168 18 268 -80q118 -36 108 -152q-89 -107 -210 -116q-22 -54 -79 -36l-29 -50h-65 q-140 -94 -326 -58l-14 21l-29 -7q-50 95 -44 188zM381 1236q128 -20 250 35v60l-36 12l-36 12q-87 75 -166 95q-136 -115 -12 -214zM1035 1426q-181 -234 72 -238q157 168 -72 238z" />
<glyph unicode="&#xf9;" horiz-adv-x="1250" d="M-6 266q56 -39 84 -84h21q36 3 62 21h21l77 7l56 14q66 49 132 63q41 24 70 28l7 14q32 18 49 41q38 11 69 14q91 103 202 147l-20 -112q-7 -11 -14 -14l-7 -21l-7 -48l-14 -21q7 -74 -14 -133l28 -28q19 -156 167 -174l42 56q-57 193 7 307q0 137 90 223v21l7 28l7 13 l14 14l7 42q36 41 49 84q18 95 -14 167q-68 53 -139 35q-17 -68 -70 -91q-69 -188 -272 -258q-54 -61 -125 -83q-142 -123 -314 -91q12 46 35 70q34 136 118 223q8 47 35 77q1 45 7 76q-24 36 -35 63l-49 14l-13 7l-84 21l-21 -14q-24 -25 -49 -28l-35 -35l-7 -21v-21 q2 -41 -7 -76q7 -40 0 -70q-148 -233 -153 -467zM216 1847l8 -50l99 -121q69 -38 107 -86q63 -41 94 -80l17 -15l79 -97l40 -49q35 2 51 -22l70 38q64 156 -272 298q-122 162 -293 184z" />
<glyph unicode="&#xfa;" horiz-adv-x="1250" d="M-6 266q56 -39 84 -84h21q36 3 62 21h21l77 7l56 14q66 49 132 63q41 24 70 28l7 14q32 18 49 41q38 11 69 14q91 103 202 147l-20 -112q-7 -11 -14 -14l-7 -21l-7 -48l-14 -21q7 -74 -14 -133l28 -28q19 -156 167 -174l42 56q-57 193 7 307q0 137 90 223v21l7 28l7 13 l14 14l7 42q36 41 49 84q18 95 -14 167q-68 53 -139 35q-17 -68 -70 -91q-69 -188 -272 -258q-54 -61 -125 -83q-142 -123 -314 -91q12 46 35 70q34 136 118 223q8 47 35 77q1 45 7 76q-24 36 -35 63l-49 14l-13 7l-84 21l-21 -14q-24 -25 -49 -28l-35 -35l-7 -21v-21 q2 -41 -7 -76q7 -40 0 -70q-148 -233 -153 -467zM446 1493l13 -100q157 -147 478 188q248 71 352 264l-63 13l-189 -63q-76 -64 -151 -88q-77 -56 -138 -75l-25 -13l-151 -50l-76 -25q-14 -43 -50 -51z" />
<glyph unicode="&#xfb;" horiz-adv-x="1250" d="M-6 266q56 -39 84 -84h21q36 3 62 21h21l77 7l56 14q66 49 132 63q41 24 70 28l7 14q32 18 49 41q38 11 69 14q91 103 202 147l-20 -112q-7 -11 -14 -14l-7 -21l-7 -48l-14 -21q7 -74 -14 -133l28 -28q19 -156 167 -174l42 56q-57 193 7 307q0 137 90 223v21l7 28l7 13 l14 14l7 42q36 41 49 84q18 95 -14 167q-68 53 -139 35q-17 -68 -70 -91q-69 -188 -272 -258q-54 -61 -125 -83q-142 -123 -314 -91q12 46 35 70q34 136 118 223q8 47 35 77q1 45 7 76q-24 36 -35 63l-49 14l-13 7l-84 21l-21 -14q-24 -25 -49 -28l-35 -35l-7 -21v-21 q2 -41 -7 -76q7 -40 0 -70q-148 -233 -153 -467zM289 1151l75 125l50 100l73 84l40 79l62 88l101 62l75 -12l57 -126l93 -112l21 -55l42 -83l25 -63l50 -87l-25 -63l-88 25l-88 50l-50 63l-37 138l-50 75l-101 -25l-62 -100l-38 -76l-75 -75l-50 -25z" />
<glyph unicode="&#xfc;" horiz-adv-x="1250" d="M-6 266q56 -39 84 -84h21q36 3 62 21h21l77 7l56 14q66 49 132 63q41 24 70 28l7 14q32 18 49 41q38 11 69 14q91 103 202 147l-20 -112q-7 -11 -14 -14l-7 -21l-7 -48l-14 -21q7 -74 -14 -133l28 -28q19 -156 167 -174l42 56q-57 193 7 307q0 137 90 223v21l7 28l7 13 l14 14l7 42q36 41 49 84q18 95 -14 167q-68 53 -139 35q-17 -68 -70 -91q-69 -188 -272 -258q-54 -61 -125 -83q-142 -123 -314 -91q12 46 35 70q34 136 118 223q8 47 35 77q1 45 7 76q-24 36 -35 63l-49 14l-13 7l-84 21l-21 -14q-24 -25 -49 -28l-35 -35l-7 -21v-21 q2 -41 -7 -76q7 -40 0 -70q-148 -233 -153 -467zM332 1222q128 -20 250 35v60l-36 12l-36 12q-87 75 -166 95q-136 -115 -12 -214zM986 1412q-181 -234 72 -238q157 168 -72 238z" />
<glyph unicode="&#x2000;" horiz-adv-x="939" />
<glyph unicode="&#x2001;" horiz-adv-x="1879" />
<glyph unicode="&#x2002;" horiz-adv-x="939" />
<glyph unicode="&#x2003;" horiz-adv-x="1879" />
<glyph unicode="&#x2004;" horiz-adv-x="626" />
<glyph unicode="&#x2005;" horiz-adv-x="469" />
<glyph unicode="&#x2006;" horiz-adv-x="313" />
<glyph unicode="&#x2007;" horiz-adv-x="313" />
<glyph unicode="&#x2008;" horiz-adv-x="234" />
<glyph unicode="&#x2009;" horiz-adv-x="375" />
<glyph unicode="&#x200a;" horiz-adv-x="104" />
<glyph unicode="&#x2010;" horiz-adv-x="1068" d="M-38 634q-77 -118 20 -225q105 -11 137 22q45 -22 75 -19l28 5l56 12l21 4l17 -10l35 7l38 -6l28 5l21 5l31 -8l21 4l21 5l21 4l31 -8l21 5l24 -9l21 4l38 -24q59 -12 107 -27l71 -2q37 135 -16 182l-55 6l-54 22q-141 1 -247 33q-38 -20 -70 -14l-19 -18l-23 9l-24 9 q-48 -21 -85 -17l-16 11l-50 -10q-46 13 -82 11q-79 62 -142 32z" />
<glyph unicode="&#x2011;" horiz-adv-x="1068" d="M-38 634q-77 -118 20 -225q105 -11 137 22q45 -22 75 -19l28 5l56 12l21 4l17 -10l35 7l38 -6l28 5l21 5l31 -8l21 4l21 5l21 4l31 -8l21 5l24 -9l21 4l38 -24q59 -12 107 -27l71 -2q37 135 -16 182l-55 6l-54 22q-141 1 -247 33q-38 -20 -70 -14l-19 -18l-23 9l-24 9 q-48 -21 -85 -17l-16 11l-50 -10q-46 13 -82 11q-79 62 -142 32z" />
<glyph unicode="&#x2012;" horiz-adv-x="1068" d="M-38 634q-77 -118 20 -225q105 -11 137 22q45 -22 75 -19l28 5l56 12l21 4l17 -10l35 7l38 -6l28 5l21 5l31 -8l21 4l21 5l21 4l31 -8l21 5l24 -9l21 4l38 -24q59 -12 107 -27l71 -2q37 135 -16 182l-55 6l-54 22q-141 1 -247 33q-38 -20 -70 -14l-19 -18l-23 9l-24 9 q-48 -21 -85 -17l-16 11l-50 -10q-46 13 -82 11q-79 62 -142 32z" />
<glyph unicode="&#x2013;" horiz-adv-x="1158" d="M-35 634q-84 -118 22 -225q116 -11 151 22q49 -22 82 -19l31 5l62 12l23 4l18 -10l39 7l41 -6l31 5l23 5l34 -8l23 4l23 5l24 4l34 -8l23 5l26 -9l23 4l42 -24q65 -12 117 -27l78 -2q41 135 -17 182l-61 6l-59 22q-155 1 -271 33q-42 -20 -77 -14l-21 -18l-25 9l-27 9 q-52 -21 -93 -17l-18 11l-55 -10q-50 13 -90 11q-86 62 -156 32z" />
<glyph unicode="&#x2014;" horiz-adv-x="2182" d="M3 634q-169 -118 44 -225q230 -11 301 22q99 -22 164 -19l62 5l123 12l46 4l38 -10l76 7l84 -6l61 5l47 5l68 -8l46 4l46 5l46 4l68 -8l46 5l53 -9l46 4l84 -24q129 -12 235 -27l156 -2q81 135 -36 182l-120 6l-119 22q-310 1 -543 33q-83 -20 -153 -14l-42 -18l-51 9 l-52 9q-106 -21 -187 -17l-35 11l-110 -10q-101 13 -180 11q-174 62 -312 32z" />
<glyph unicode="&#x2022;" horiz-adv-x="717" d="M109 718q0 105 74.5 179t178.5 74q105 0 179.5 -74t74.5 -179t-74.5 -179.5t-179.5 -74.5q-104 0 -178.5 74.5t-74.5 179.5z" />
<glyph unicode="&#x202f;" horiz-adv-x="375" />
<glyph unicode="&#x205f;" horiz-adv-x="469" />
<glyph unicode="&#x20ac;" horiz-adv-x="1430" d="M30 708q-154 -247 385 -244v-38l26 -154q279 -459 1000 -141q25 48 64 77q-13 86 -102 77q-678 -261 -796 141h64l39 -13h51l295 -26q56 62 116 77l-39 103l-38 -13l-90 38q-50 -8 -90 0l-38 13l-244 39q27 120 103 205l38 13l39 -13q60 6 102 -13h52l218 -25 q281 -100 295 102q-270 126 -526 129v77h51q67 94 167 89q141 101 282 39q73 12 128 13q77 118 52 231q-38 11 -65 38l-25 13h-90q-219 -132 -436 -141q-68 -82 -154 -103l-13 -38q-109 -110 -167 -193q-186 -18 -333 64q-65 12 -103 0q-131 -153 -26 -282q175 30 308 -13 q-62 -83 -77 -154q-156 -1 -243 103l-90 26q-59 -47 -90 -103z" />
<glyph unicode="&#x2122;" horiz-adv-x="2048" d="M225 1345v121h666v-121h-266v-694h-136v694h-264zM982 651v815h200l206 -651l199 651h196v-815h-124v684l-210 -684h-123l-219 694v-694h-125z" />
<glyph unicode="&#x25fc;" horiz-adv-x="1280" d="M0 0v1280h1280v-1280h-1280z" />
</font>
</defs>
</svg>
